<?xml version="1.0" encoding="UTF-8"?>
<svg width="25px" height="24px" viewBox="0 0 25 24" version="1.1" xmlns="http://www.w3.org/2000/svg" xmlns:xlink="http://www.w3.org/1999/xlink">
    <!-- Generator: Sketch 53.1 (72631) - https://sketchapp.com -->
    <title>home_normal</title>
    <desc>Created with Sketch.</desc>
    <g id="zeplin" stroke="none" stroke-width="1" fill="none" fill-rule="evenodd">
        <g id="Artboard" transform="translate(-160.000000, -59.000000)" fill="#FFFFFF" fill-rule="nonzero">
            <g id="home_normal" transform="translate(160.000000, 59.000000)">
                <path d="M12.6506058,1.41176471 L23.3376647,12.0988235 L20.5141353,12.0988235 L20.5141353,21.9811765 L16.6459,21.9811765 L16.6459,12.7058824 L8.69766467,12.7058824 L8.69766467,22.0658824 L4.84354702,22.0658824 L4.84354702,12.0423529 L2.02001761,12.0423529 L12.6506058,1.41176471 L12.6506058,1.41176471 Z M12.6506058,2.91541964e-16 C12.2753546,-0.00216954183 11.9146795,0.14514845 11.6482529,0.409411765 L1.01766467,11.04 C0.610427097,11.4438924 0.488024403,12.0540237 0.707964506,12.5837386 C0.927904609,13.1134535 1.44646692,13.4574531 2.02001761,13.4541176 L3.43178232,13.4541176 L3.43178232,22.0094118 C3.43178232,22.7891079 4.06385091,23.4211765 4.84354702,23.4211765 L8.69766467,23.4211765 C9.47736079,23.4211765 10.1094294,22.7891079 10.1094294,22.0094118 L10.1094294,14.1176471 L15.2341353,14.1176471 L15.2341353,22.0658824 C15.2341353,22.8455785 15.8662038,23.4776471 16.6459,23.4776471 L20.443547,23.4776471 C21.2232431,23.4776471 21.8553117,22.8455785 21.8553117,22.0658824 L21.8553117,13.5952941 L23.2670764,13.5952941 C23.8406271,13.5986296 24.3591894,13.25463 24.5791295,12.7249151 C24.7990696,12.1952002 24.676667,11.5850689 24.2694294,11.1811765 L13.6388411,0.409411765 C13.3758849,0.148596475 13.020968,0.00155946571 12.6506058,2.91541964e-16 Z" id="Shape"></path>
            </g>
        </g>
    </g>
</svg>