<?xml version="1.0" standalone="no"?>
<!DOCTYPE svg PUBLIC "-//W3C//DTD SVG 1.1//EN" "http://www.w3.org/Graphics/SVG/1.1/DTD/svg11.dtd" >
<svg xmlns="http://www.w3.org/2000/svg" xmlns:xlink="http://www.w3.org/1999/xlink" version="1.1">
<metadata></metadata>
<defs>
<font id="franklingothicnewheavyregular" horiz-adv-x="1222" >
<font-face units-per-em="2048" ascent="1638" descent="-410" />
<missing-glyph horiz-adv-x="548" />
<glyph horiz-adv-x="0" />
<glyph unicode="&#xd;" horiz-adv-x="548" />
<glyph unicode=" "  horiz-adv-x="548" />
<glyph unicode="&#x09;" horiz-adv-x="548" />
<glyph unicode="&#xa0;" horiz-adv-x="548" />
<glyph unicode="!" horiz-adv-x="589" d="M578 1452q-55 -547 -115 -983h-260l-125 983h500zM131 383h408v-385h-408v385z" />
<glyph unicode="&#x22;" horiz-adv-x="864" d="M49 1448h348v-318l-178 -305h-158l144 287h-156v336zM483 1450h344v-322l-180 -303h-162l144 287h-146v338z" />
<glyph unicode="#" horiz-adv-x="1056" d="M229 422h-198v137h219l53 395h-219v140h240l59 422h141l-59 -422h254l59 422h142l-60 -422h170v-138h-190l-56 -397h189v-137h-207l-59 -422h-142l60 422h-254l-60 -422h-141zM446 956l-55 -397h252l55 397h-252z" />
<glyph unicode="$" horiz-adv-x="1179" d="M276 504q18 -66 63.5 -111t113.5 -71v258q-184 0 -314 104q-141 113 -141 297q0 190 131 297q113 92 313 117v149h242v-153q147 -29 236 -101q80 -66 153 -205l-276 -104q-37 66 -45 76q-18 23 -72 55v-227q211 -35 321 -121q137 -106 138 -301q0 -182 -138 -289 q-115 -90 -311 -121v-192h-248v190q-197 31 -301 107q-111 82 -182 262zM451 1139q-55 -14 -86 -35q-41 -29 -41 -78q0 -47 41 -78q33 -25 86 -35v226zM811 428q0 47 -41 78t-90 31v-224q61 14 88 33q43 29 43 82z" />
<glyph unicode="%" horiz-adv-x="1769" d="M342 1452q164 0 256 -154q78 -129 78 -305q0 -186 -78 -309q-94 -147 -270 -147q-178 0 -275 139q-84 123 -84 309q0 207 80 326q96 141 293 141zM319 725q57 0 80 92q14 59 15 170v57q0 121 -23.5 171.5t-75.5 50.5q-53 0 -70.5 -86t-17.5 -195v-43q0 -113 22.5 -165 t69.5 -52zM1165 1450h228l-883 -1448h-223zM1356 903q176 0 270 -147q80 -125 80 -312q0 -188 -78 -311q-92 -147 -270 -147q-176 0 -273 147q-84 127 -84 313q0 188 80 312q95 145 275 145zM1358 176q53 0 76 70q16 51 16 141q0 23 -1 42.5t-1 37.5q0 129 -22.5 188.5 t-69.5 59.5q-59 0 -82 -94q-12 -53 -12 -144q0 -127 8 -178q20 -123 88 -123z" />
<glyph unicode="&#x26;" horiz-adv-x="1517" d="M164 1100q0 186 145 280q125 80 324 80q190 0 313 -78q145 -92 146 -274q0 -125 -74 -217q-63 -80 -189 -135l144 -158l102 246l367 -37q-20 -131 -72.5 -239.5t-142.5 -213.5q59 -20 95 -27.5t73 -7.5l49 5v-316q-49 -10 -106.5 -14t-114.5 -4q-70 0 -146 35 q-51 23 -129 75q-131 -78 -192 -100q-86 -31 -219 -31q-139 0 -244 29q-127 35 -211 119q-59 59 -98 135t-39 154q0 168 94 264q66 68 246 151q-53 45 -87 125t-34 154zM471 612q-39 -29 -63 -63q-31 -43 -31 -82q0 -74 49 -125t125 -51q45 0 86 13t84 40zM752 1110 q0 43 -34 68.5t-79 25.5q-37 0 -64.5 -27.5t-27.5 -64.5q0 -35 37 -82q2 -4 61 -69q45 25 64 40q43 37 43 109z" />
<glyph unicode="'" horiz-adv-x="475" d="M55 1049l234 403h153l-161 -369h170v-385h-396v351z" />
<glyph unicode="(" horiz-adv-x="714" d="M745 1556q-143 -193 -216.5 -433t-73.5 -492q0 -248 70.5 -477.5t209.5 -429.5h-241l-60 83q-121 172 -189.5 403.5t-68.5 451.5q0 236 88 471q82 219 232 423h249z" />
<glyph unicode=")" horiz-adv-x="714" d="M248 668q0 244 -74 460q-59 172 -203 422l236 2q162 -250 233 -440q86 -231 86 -494q0 -256 -86 -477q-63 -166 -231 -424l-248 11q141 199 214 442.5t73 497.5z" />
<glyph unicode="*" horiz-adv-x="1011" d="M72 1249l307 -129l-37 334h254l-29 -332l320 138l80 -232l-324 -76q41 -66 131 -155q74 -76 88 -90l-207 -144l-180 277l-164 -285l-213 143l224 248l-324 76z" />
<glyph unicode="+" horiz-adv-x="1349" d="M49 733h471v471h264v-471h467v-262h-467v-471h-264v471h-471v262z" />
<glyph unicode="," horiz-adv-x="505" d="M49 371h395v-348l-225 -402h-162l164 367h-172v383z" />
<glyph unicode="-" horiz-adv-x="630" d="M53 762h508v-328h-508v328z" />
<glyph unicode="." horiz-adv-x="505" d="M45 385h401v-385h-401v385z" />
<glyph unicode="/" horiz-adv-x="1011" d="M846 1610h211l-1014 -1897h-211z" />
<glyph unicode="0" d="M588 1475q276 0 432 -232q135 -203 135 -491q0 -328 -121 -529q-150 -248 -456 -248q-289 0 -441 240q-129 203 -129 510q0 313 129 512q154 238 451 238zM586 279q92 0 127 139q20 80 20 211v192q0 133 -20 211q-35 137 -129 137q-92 0 -129 -137q-23 -86 -23 -215v-170 q0 -137 21 -221q37 -147 133 -147z" />
<glyph unicode="1" d="M78 319h352v691q-70 -31 -154 -60q-70 -23 -157 -47v320q115 14 229.5 75.5t188.5 153.5h309v-1130h342v-324h-1110v321z" />
<glyph unicode="2" d="M18 328q287 190 412 293q287 233 287 366q0 66 -45 111t-113 45q-84 0 -131 -86q-39 -72 -39 -164l-369 76q55 252 191 372q143 129 397 129q217 0 367 -124q158 -133 158 -347q0 -139 -95 -270q-74 -102 -217 -211q-53 -41 -243 -168h559l-9 -348h-1110v326z" />
<glyph unicode="3" d="M319 485q20 -88 70.5 -140t138.5 -52q74 0 126.5 41t52.5 112q0 84 -89 119q-63 25 -161 25l-109 -4v301l111 -2q123 0 170 33.5t47 99.5q0 61 -47 94t-111 33q-78 0 -117 -68q-14 -27 -39 -84l-368 54q53 207 204.5 316.5t368.5 109.5q207 0 355 -101q168 -115 168 -311 q0 -111 -64 -191q-55 -70 -162 -125q117 -18 191.5 -114t74.5 -217q0 -225 -180 -342q-154 -98 -393 -99q-238 0 -393 115q-166 123 -203 352z" />
<glyph unicode="4" d="M-31 631l551 848h438v-842h183v-320h-180v-317h-418v315h-574v316zM557 633l16 485q-68 -125 -141 -246q-66 -106 -153 -239h278z" />
<glyph unicode="5" d="M346 453q37 -78 72 -111q47 -43 123 -43q78 0 130 48t52 124q0 80 -53.5 127t-132.5 47q-49 0 -85 -20.5t-75 -61.5l-332 45q0 182 18 420q6 66 39 422h965l-37 -356h-606l-14 -226q115 82 245 82q211 0 348.5 -129t137.5 -340q0 -242 -178 -381q-164 -127 -414 -127 q-215 0 -369 109q-168 119 -192 326z" />
<glyph unicode="6" d="M12 733q0 301 152 506q168 227 461 227q211 0 340 -116q123 -111 170 -322l-371 -39q0 68 -31 115q-37 55 -104 55q-111 0 -156 -137q-31 -92 -31 -229q45 63 118 95t159 32q199 0 323.5 -125t124.5 -326q0 -229 -161 -365q-154 -129 -388 -129q-322 0 -475 228 q-131 194 -131 530zM604 276q68 0 110 50.5t42 117.5q0 72 -42 122t-114 50q-68 0 -113 -53t-45 -123q0 -68 46 -116t116 -48z" />
<glyph unicode="7" d="M53 1448h1045l2 -277q-215 -291 -300 -557t-85 -632h-477q0 231 53 413q47 164 158 344q82 135 247 346h-669z" />
<glyph unicode="8" d="M57 1067q0 190 181 309q160 104 358 105q205 0 348 -95q166 -109 166 -305q0 -104 -53 -182q-43 -63 -142 -129q117 -41 177.5 -136t60.5 -222q0 -231 -209 -346q-168 -92 -420 -93q-221 0 -356 95q-158 111 -158 321q0 102 65.5 188.5t166.5 124.5q-100 49 -142.5 144.5 t-42.5 220.5zM387 408q0 -66 47 -113t113 -47q104 0 147 33.5t43 87.5q0 66 -108 118q-57 29 -168 60q-35 -35 -51 -62q-23 -36 -23 -77zM739 1030q0 59 -42 111.5t-99 52.5h-33q-43 0 -77.5 -37t-34.5 -82q0 -74 57 -123q41 -35 125 -71q51 27 77.5 61.5t26.5 87.5z" />
<glyph unicode="9" d="M399 453q8 -78 35 -117q35 -51 105 -51q96 0 145 121q37 92 37 206v39q-41 -66 -120 -96.5t-167 -30.5q-186 0 -312 124t-126 308q0 229 155.5 370.5t385.5 141.5q328 0 481 -229q131 -195 131 -541q0 -301 -154 -501q-170 -221 -465 -222q-199 0 -337 120t-166 315z M555 827q72 0 119 51.5t47 122.5q0 72 -47 119t-119 47q-70 0 -111 -51t-41 -123q0 -68 43 -117t109 -49z" />
<glyph unicode=":" horiz-adv-x="589" d="M141 387h398v-387h-398v387zM141 1090h394v-388h-394v388z" />
<glyph unicode=";" horiz-adv-x="589" d="M137 1085h404v-387h-404v387zM139 381h400v-365l-232 -389h-166l174 369h-176v385z" />
<glyph unicode="&#x3c;" horiz-adv-x="1155" d="M1092 913l-871 -395l871 -395v-139l-1041 471v127l1041 471v-140z" />
<glyph unicode="=" horiz-adv-x="1349" d="M-49 518h1378v-264h-1378v264zM-49 950h1378v-262h-1378v262z" />
<glyph unicode="&#x3e;" horiz-adv-x="1155" d="M63 123l871 395l-871 395v140l1041 -471v-127l-1041 -471v139z" />
<glyph unicode="?" horiz-adv-x="1138" d="M524 1483q240 0 391 -103q176 -119 177 -348q0 -154 -84 -248q-8 -8 -170 -137q-102 -80 -125 -180l-338 2l-2 74q0 158 138 285.5t138 226.5q0 61 -35.5 101t-95.5 40q-80 0 -121 -86q-33 -70 -32 -156l-379 41q39 231 173 359.5t365 128.5zM358 373h404v-373h-404v373z " />
<glyph unicode="@" horiz-adv-x="2078" d="M1083 1024q-131 0 -225 -137q-84 -123 -84 -262q0 -84 45 -141.5t127 -57.5q125 0 219 145q86 133 86 265q0 72 -48 130t-120 58zM1356 1139h141q-76 -252 -149 -504q-14 -53 -25.5 -101.5t-11.5 -62.5q0 -25 5 -42t38 -17q123 0 213 163q78 143 78 279q0 240 -164 384 t-408 144q-270 0 -446 -190.5t-176 -464.5q0 -270 182 -454.5t457 -184.5q143 0 275 61.5t220 172.5h137q-100 -168 -270 -264.5t-369 -96.5q-328 0 -555 225.5t-227 552.5q0 317 226.5 543.5t545.5 226.5q285 0 490 -174q215 -184 215 -465q0 -207 -140 -391 q-152 -201 -350 -200q-57 0 -94 34.5t-37 94.5q-53 -57 -117.5 -93t-132.5 -36q-131 0 -216 97t-85 230q0 215 127 383q137 182 346 182q80 0 140.5 -42t95.5 -117z" />
<glyph unicode="A" horiz-adv-x="1349" d="M403 1440h467l451 -1440h-453l-77 287h-402l-78 -285h-356zM711 600l-119 447l-125 -447h244z" />
<glyph unicode="B" horiz-adv-x="1349" d="M88 1444h735q193 0 307 -90q129 -100 130 -289q0 -123 -62.5 -202t-181.5 -120q141 -29 215 -114.5t74 -231.5q0 -209 -160 -311q-137 -88 -357 -88h-700v1446zM684 889q66 0 109 26q53 33 53 95q0 61 -46 93t-110 32h-192v-246h186zM733 317q57 0 97 38t40 96 q0 61 -49 95t-112 34h-211v-263h235z" />
<glyph unicode="C" horiz-adv-x="1349" d="M872 870q0 109 -41 181q-51 88 -153 88q-131 0 -178 -172q-27 -96 -27 -281q0 -156 31 -240q49 -133 176 -133q82 0 138 75t56 159l406 -31l-12 -74q-45 -219 -204 -345t-386 -126q-319 0 -496 217q-164 203 -164 531q0 330 156 530q172 223 492 224q262 0 440 -161 t178 -419z" />
<glyph unicode="D" horiz-adv-x="1435" d="M84 1448h436q37 0 126 -4t95 -4q285 0 453 -197q160 -188 160 -487q0 -344 -174 -543q-186 -213 -525 -213h-571v1448zM899 727q0 184 -65 279q-78 113 -254 112l-56 -2v-784l31 -2q188 0 270 106q74 96 74 291z" />
<glyph unicode="E" d="M92 1448h1067v-338h-629v-207h502v-328h-500v-229h627v-346h-1067v1448z" />
<glyph unicode="F" horiz-adv-x="1179" d="M98 1450h1041v-342h-607v-238h469v-325h-464v-545h-439v1450z" />
<glyph unicode="G" horiz-adv-x="1435" d="M891 928q-10 86 -53 141q-51 68 -133 68q-131 0 -189 -150q-39 -102 -39 -262q0 -150 47 -262q63 -152 193 -152q82 0 133 54q41 43 68 131h-242v303h649v-801h-217q-10 33 -27 78q-4 12 -30 78q-90 -88 -188.5 -129t-225.5 -41q-307 0 -471 231q-143 203 -143 524 q0 305 178 514q188 221 489 222q260 0 411.5 -127t215.5 -383z" />
<glyph unicode="H" horiz-adv-x="1435" d="M90 1446h436v-535h340v537h437v-1446h-437v557h-336v-559h-440v1446z" />
<glyph unicode="I" horiz-adv-x="675" d="M113 1444h440v-1446h-440v1446z" />
<glyph unicode="J" horiz-adv-x="925" d="M20 367q47 -10 96.5 -18.5t94.5 -8.5q78 0 126 39t48 115v952h424v-985q0 -479 -473 -479q-68 0 -104.5 4t-211.5 39v342z" />
<glyph unicode="K" horiz-adv-x="1390" d="M86 1448h424v-598l395 596h414l-373 -541l438 -905h-460l-262 547l-160 -238v-309h-416v1448z" />
<glyph unicode="L" horiz-adv-x="1179" d="M94 1448h445v-1100h581v-350h-1026v1450z" />
<glyph unicode="M" horiz-adv-x="1769" d="M61 1448h572q111 -397 139 -506q43 -170 70 -309q78 319 125 508q55 205 80 305h579v-1448h-403v1034q-45 -150 -91.5 -333t-89.5 -355q-35 -139 -92 -346h-278l-285 1030v-1028h-326v1448z" />
<glyph unicode="N" horiz-adv-x="1476" d="M84 1450h424q12 -20 154 -242q96 -150 153 -243q88 -141 152 -246v727h366v-1446l-364 -2q-66 109 -174 283q-98 158 -174 282q-113 184 -170 289v-852h-367v1450z" />
<glyph unicode="O" horiz-adv-x="1476" d="M702 1479q315 0 506 -211q182 -203 183 -523q0 -344 -179 -552q-188 -221 -526 -222q-305 0 -491.5 203t-186.5 508q0 350 168 563q184 234 526 234zM696 299q139 0 189 150q31 92 30 266q0 186 -28 276q-51 160 -195 160q-127 0 -178 -141q-33 -92 -33 -250 q0 -190 27 -287q49 -174 188 -174z" />
<glyph unicode="P" horiz-adv-x="1349" d="M88 1444h606q256 0 414 -96q193 -117 192 -359q0 -211 -122 -323q-100 -92 -295 -125q-123 -20 -355 -21v-524h-440v1448zM696 836q70 0 117 36.5t47 106.5t-57.5 101.5t-134.5 31.5h-152v-276h180z" />
<glyph unicode="Q" horiz-adv-x="1476" d="M1272 55q51 0 72.5 3t60.5 16v-326q-35 -4 -103.5 -10t-103.5 -6q-127 0 -214 70.5t-112 193.5q-49 -6 -100 -12.5t-96 -6.5q-303 0 -488 224q-170 207 -170 516q0 350 179 551q186 209 532 209q319 0 502 -226q170 -209 170 -536q0 -195 -55 -328q-61 -147 -205 -264 q23 -39 53.5 -53.5t77.5 -14.5zM729 305q131 0 178 152q27 86 27 258t-31 272q-51 164 -184 164q-125 0 -178 -164q-35 -109 -35 -270q0 -182 29 -266q49 -146 194 -146z" />
<glyph unicode="R" horiz-adv-x="1390" d="M88 1452h705q229 0 376 -98q174 -117 174 -334q0 -133 -66.5 -237.5t-189.5 -149.5l267 -635h-492l-211 549h-125v-547h-438v1452zM707 858q70 0 118 33q57 39 58 106q0 66 -48.5 103t-117.5 37h-193v-279h183z" />
<glyph unicode="S" horiz-adv-x="1349" d="M389 485q37 -96 98.5 -135t165.5 -39q96 0 130 29t34 82q0 61 -196 104q-260 57 -365 121q-199 121 -199 365q0 223 187 352q164 113 401 113q207 0 342 -72t238 -248q16 -25 20 -39l-364 -104q-45 72 -97.5 106.5t-132.5 34.5q-57 0 -104 -23.5t-47 -74.5 q0 -80 200 -125q285 -63 373 -113q201 -113 201 -358q0 -242 -203 -373q-176 -115 -430 -115q-246 0 -416 103q-193 115 -243 340z" />
<glyph unicode="T" horiz-adv-x="1011" d="M-35 1446h1022v-350h-289v-1098h-432v1100h-301v348z" />
<glyph unicode="U" horiz-adv-x="1390" d="M78 1448h448v-959q0 -80 52.5 -126t132.5 -46q98 0 151 55.5t53 153.5v920h349v-891q0 -299 -140.5 -437t-441.5 -138q-256 0 -412 94q-193 117 -192 356v1018z" />
<glyph unicode="V" horiz-adv-x="1349" d="M414 1448q33 -125 91 -324.5t95 -330.5q55 -201 84 -332q45 205 131 495l148 492l354 2l-453 -1452h-442l-471 1450h463z" />
<glyph unicode="W" horiz-adv-x="1896" d="M348 1444q35 -150 70 -299q45 -190 69 -299q39 -180 60 -301q49 272 92 463.5t115 437.5h352q55 -223 112.5 -458.5t92.5 -436.5q29 133 75 336q29 121 138 559l334 2l-252 -954q-12 -43 -45 -187q-47 -205 -95 -309h-372l-199 797l-193 -797h-389l-385 1446h420z" />
<glyph unicode="X" horiz-adv-x="1435" d="M418 743l-449 703h512l230 -399l231 403h408l-428 -678l483 -774h-506l-270 451l-258 -453h-424z" />
<glyph unicode="Y" horiz-adv-x="1349" d="M432 1448l260 -487l244 489h381l-445 -834v-616h-436v610l-483 838h479z" />
<glyph unicode="Z" horiz-adv-x="1265" d="M2 285q72 94 215 272q90 115 215 274q141 182 209 281h-590v336h1131v-279l-623 -825h641v-346h-1198v287z" />
<glyph unicode="[" horiz-adv-x="548" d="M117 1649h430v-142h-195v-1626h201v-151h-436v1919z" />
<glyph unicode="\" horiz-adv-x="569" d="M-35 1509h135l504 -1548h-137z" />
<glyph unicode="]" horiz-adv-x="548" d="M-16 -125h200v1620h-200v147h430v-1918h-430v151z" />
<glyph unicode="^" horiz-adv-x="0" d="M2 1849l401 -303h-217l-190 121l-189 -115h-217z" />
<glyph unicode="_" horiz-adv-x="1138" d="M0 -256v102h1139v-102h-1139z" />
<glyph unicode="`" horiz-adv-x="0" d="M-258 1532l465 -240l-53 -114l-496 184z" />
<glyph unicode="a" d="M567 842q-59 0 -96 -31q-29 -25 -57 -86l-389 39q39 180 215 264q141 68 348 68q246 0 370 -78q156 -98 156 -330v-504q0 -102 39 -188h-414l-18 149q-45 -84 -146 -129q-88 -39 -194 -39q-150 0 -256 76q-119 84 -119 230q0 242 246 346q174 74 455 73q0 76 -32 108 t-108 32zM434 340q0 -106 109 -107q90 0 129 66q33 53 33 147l-3 56q-100 -12 -165 -41q-103 -45 -103 -121z" />
<glyph unicode="b" d="M57 1452h408v-453q70 51 133.5 78t138.5 27q213 0 332 -168q104 -147 105 -371q0 -242 -82 -393q-106 -195 -328 -195q-96 0 -182 41t-131 119v-137h-394v1452zM594 268q88 0 123 101q23 66 22 172q0 123 -16 180q-31 109 -123 108q-80 0 -113 -55q-25 -43 -24 -131v-135 q0 -94 20 -152q33 -88 111 -88z" />
<glyph unicode="c" horiz-adv-x="1097" d="M707 659q-16 80 -43 115q-35 47 -109 47t-102 -108q-18 -68 -19 -168q0 -109 23 -170q35 -96 125 -96q61 0 96 47q29 37 39 104l346 -33q0 -190 -162 -313q-145 -111 -346 -111q-248 0 -399.5 162t-151.5 410q0 258 153.5 409.5t411.5 151.5q207 0 328 -105.5t166 -310.5 z" />
<glyph unicode="d" d="M702 1448h412v-1448h-393v141q-57 -82 -130 -121.5t-171 -39.5q-211 0 -326 172q-100 150 -100 370q0 231 92 389q113 193 330 193q100 0 184 -41q51 -31 102 -59v444zM569 268q88 0 121 94q20 59 21 181v51q0 102 -19 154q-31 84 -114 83q-94 0 -127 -104 q-20 -63 -21 -184q0 -104 23 -172q34 -103 116 -103z" />
<glyph unicode="e" d="M467 461v-27q0 -76 43 -127t119 -51q68 0 105.5 30.5t70.5 98.5l395 -29q-74 -195 -220 -287t-359 -92q-270 0 -431 150q-166 156 -165 424q0 260 173 410.5t437 150.5q229 0 397 -146.5t168 -369.5l2 -102v-33h-735zM780 680q-6 82 -40.5 129t-112.5 47q-66 0 -114 -44 t-48 -110v-22h315z" />
<glyph unicode="f" horiz-adv-x="843" d="M-31 1081h154q0 240 95 337.5t333 97.5q137 0 276 -35l-2 -262q-45 4 -87 8t-76 4q-80 0 -113 -33t-33 -115h277v-286h-261v-795h-407v797h-156v282z" />
<glyph unicode="g" d="M43 252q0 82 55.5 149.5t134.5 92.5q-78 27 -125 97.5t-47 153.5q0 186 181 277q143 72 348 72q98 0 196 -19q0 156 103 213q80 45 248 45h39v-286h-86q-68 0 -127 -48q70 -59 96 -108q35 -61 35 -141q0 -197 -197 -275q-133 -53 -362 -53q-47 0 -83 -11.5t-36 -45.5 q16 -47 188 -52q414 -12 496 -80q57 -47 90 -106t33 -127q0 -166 -117 -258q-94 -74 -268 -102q-115 -18 -295 -19q-213 0 -338 37q-209 61 -209 223q0 76 39 123q25 29 104 80q-47 43 -55 53q-41 47 -41 115zM346 -63q0 -49 63.5 -74t196.5 -25q94 0 146 10q100 20 100 78 q0 53 -78 68q-35 6 -76 6h-22l-270 4q-37 -23 -39 -24q-21 -18 -21 -43zM455 745q0 -55 34.5 -89.5t90.5 -34.5q59 0 93 39.5t34 99.5q0 47 -35 84t-84 37q-59 0 -96 -37.5t-37 -98.5z" />
<glyph unicode="h" d="M53 1446h416v-490q70 76 141.5 108t173.5 32q133 0 228 -74q104 -82 104 -209v-813h-414v672q0 55 -24.5 91t-77.5 36q-68 0 -93.5 -47t-25.5 -121v-631h-428v1446z" />
<glyph unicode="i" horiz-adv-x="589" d="M78 1079h420v-1081h-420v1081zM78 1487h418v-299h-418v299z" />
<glyph unicode="j" horiz-adv-x="589" d="M-137 -53q37 -6 47 -7t37 -1q61 0 83.5 28.5t22.5 89.5v1026h426v-1069q0 -201 -99 -292t-302 -91h-70q-45 0 -68.5 3.5t-76.5 17.5v295zM49 1489h424v-295h-424v295z" />
<glyph unicode="k" d="M51 1448h402v-770l358 399h373q-51 -47 -105.5 -103t-103.5 -112q-35 -37 -69 -74.5t-60 -80.5l368 -707h-428l-202 432l-125 -137v-295h-408v1448z" />
<glyph unicode="l" horiz-adv-x="589" d="M76 1448h416v-1450h-416v1450z" />
<glyph unicode="m" horiz-adv-x="1769" d="M29 1079h368l-2 -149q70 90 142.5 129t181.5 39q96 0 167.5 -42t121.5 -126q47 86 131 127t190 41q152 0 242 -86t90 -236v-776h-410l-2 690q0 47 -18 74q-25 33 -70 33q-55 0 -84.5 -45t-29.5 -103v-647h-406v660q0 57 -20 92q-27 45 -80 45q-55 0 -80 -45t-25 -107 v-647h-407v1079z" />
<glyph unicode="n" d="M51 1079h389l6 -153q72 92 142.5 130t183.5 38q164 0 257 -93.5t93 -257.5v-745h-420v686q0 55 -28.5 92t-81.5 37q-59 0 -87 -48t-28 -112v-653h-426v1079z" />
<glyph unicode="o" d="M588 1108q266 0 423.5 -147.5t157.5 -413.5q0 -262 -160.5 -419t-422.5 -157q-264 0 -428 162t-164 426q0 244 173 396.5t421 152.5zM584 231q92 0 127 123q20 74 20 201q0 119 -22 190q-35 115 -127 115q-94 0 -127 -127q-20 -78 -21 -207q0 -115 23 -184 q35 -111 127 -111z" />
<glyph unicode="p" d="M51 1077h385v-172q57 104 126 151.5t183 47.5q223 0 334 -184q92 -154 92 -394q0 -225 -96 -374q-115 -176 -330 -177q-76 0 -153.5 32t-120.5 89v-442h-420v1423zM606 238q66 0 97.5 65.5t31.5 224.5q0 129 -16 185q-31 106 -127 106q-80 0 -109 -76q-18 -47 -18 -151 v-53v-68q0 -102 20 -154q33 -79 121 -79z" />
<glyph unicode="q" d="M881 1079l241 2l-4 -159v-1266h-416v444q-51 -55 -113.5 -89t-127.5 -34q-225 0 -348 156q-115 145 -115 375q0 258 111 414q127 178 374 178q117 0 187 -37q51 -27 145 -121q20 33 37 66q4 8 29 71zM702 686q0 68 -34.5 116t-102.5 48q-90 0 -123 -129q-18 -74 -18 -205 q0 -104 20 -174q33 -109 113 -109q78 0 115 64q31 53 30 137v252z" />
<glyph unicode="r" horiz-adv-x="800" d="M63 1077h359l-2 -217q37 127 119 177t221 50l2 -376l-80 6q-111 0 -160 -59.5t-49 -172.5v-485h-410v1077z" />
<glyph unicode="s" horiz-adv-x="1138" d="M322 348q23 -63 86 -90q49 -20 127 -20q88 0 124.5 17t36.5 56q0 25 -51 41q-25 8 -39 10q-328 61 -373 80q-201 82 -200 289q0 193 170 291q141 82 348 82q166 0 289 -67.5t190 -213.5l-319 -61q-41 51 -82 69.5t-111 18.5t-93.5 -14.5t-23.5 -47.5q0 -16 14.5 -26 t53.5 -19q197 -41 395 -79q213 -76 213 -304q0 -195 -186 -299q-152 -84 -365 -84q-195 0 -327 72q-152 82 -217 252z" />
<glyph unicode="t" horiz-adv-x="800" d="M-29 1081h176l27 328l369 14v-340h211v-290h-217v-428q2 -10 6 -19q18 -33 46.5 -46t72.5 -13q23 0 50 3t42 5v-289q-80 -14 -131.5 -19t-120.5 -5q-168 0 -264 75q-106 84 -107 248v486h-160v290z" />
<glyph unicode="u" d="M49 1077h420v-686q0 -47 20.5 -74.5t63.5 -27.5q68 0 103.5 47t35.5 117v626h424v-1081h-385l2 170q-68 -109 -141.5 -151t-200.5 -42q-172 0 -257 95.5t-85 267.5v739z" />
<glyph unicode="v" horiz-adv-x="1097" d="M395 1079q96 -305 195 -610q92 305 184 612h303l-397 -1083h-309l-412 1081h436z" />
<glyph unicode="w" horiz-adv-x="1560" d="M358 1083q33 -121 74 -283.5t68 -281.5l139 565h313q31 -133 68 -297q29 -129 63 -301q29 150 70 301q14 51 88 297l295 -2q-51 -131 -125 -356q-43 -131 -114.5 -365.5t-112.5 -357.5h-301q-35 131 -74 307q-45 209 -68 312l-147 -619h-305l-344 1081h413z" />
<glyph unicode="x" horiz-adv-x="1179" d="M330 569l-336 510l469 2q84 -145 145 -282l160 280h346l-328 -493l373 -586h-452l-193 350l-209 -350h-348z" />
<glyph unicode="y" horiz-adv-x="1097" d="M408 1079q68 -211 98 -319q41 -139 86 -328q37 150 90 324q12 37 104 321l297 2q-57 -141 -122 -336q-57 -170 -113 -340l-100 -292q-66 -186 -107 -261q-63 -113 -160.5 -165t-275.5 -52q-76 0 -154 13l-6 291q47 -6 117.5 -8.5t79.5 -2.5q51 0 88 21q47 27 47 76 q0 18 -96 262q-59 150 -191 473q-88 217 -131 321h449z" />
<glyph unicode="z" horiz-adv-x="1011" d="M10 231l451 578h-414v268h891v-231l-455 -578h475v-270h-948v233z" />
<glyph unicode="{" horiz-adv-x="684" d="M86 602q113 0 147 137q16 66 17 230l-2 88q0 193 22 268q45 154 191 154h137v-133h-90q-55 0 -74.5 -51.5t-19.5 -116.5v-232l-2 -117q0 -88 -47 -172q-53 -94 -132 -114q113 -37 154 -170q27 -88 27 -242l-2 -178q0 -92 10 -135q20 -86 86 -86h90v-133h-137 q-96 0 -152.5 81.5t-56.5 182.5v350q0 96 -35 170q-45 96 -131 96v123z" />
<glyph unicode="|" horiz-adv-x="532" d="M193 1509h149v-1548h-149v1548z" />
<glyph unicode="}" horiz-adv-x="684" d="M598 479q-84 0 -129 -96q-37 -78 -37 -170v-350q0 -102 -51 -178q-59 -86 -158 -86h-137v133h90q63 0 84 84q10 43 10 137l-2 176q0 156 27 242q41 133 156 168q-78 23 -129.5 112.5t-51.5 175.5v351q0 70 -14 106q-23 61 -80 62h-90v133h137q131 0 180 -131 q33 -86 33 -261q0 -33 -1 -62.5t-1 -55.5q0 -162 17 -228q35 -139 147 -139v-123z" />
<glyph unicode="~" horiz-adv-x="0" d="M-145 1810q45 0 106 -20q141 -47 180 -47t82 18.5t74 46.5l96 -108q-61 -45 -117 -70q-72 -33 -133 -33q-45 0 -106 21q-141 47 -180 47q-45 0 -90.5 -22.5t-75.5 -59.5l-92 100q59 43 116 89q64 38 140 38z" />
<glyph horiz-adv-x="1097" d="M885 1034l-150 -270h328v-109h-387l-156 -276h543v-109h-602l-178 -319l-99 55l148 264h-312v109h373l154 276h-527v109h588l180 328z" />
<glyph horiz-adv-x="1427" d="M1073 803q115 0 198 -81t83 -194q0 -111 -79 -195.5t-192 -84.5q-90 0 -168 39q-43 23 -221 170q-139 -123 -174 -146q-100 -66 -217 -65q-111 0 -189.5 86t-78.5 198q0 113 84 193t194 80q100 0 207 -70q55 -35 174 -143q115 102 172 141q109 72 207 72zM317 700 q-76 0 -127 -55t-51 -133q0 -72 55.5 -120t129.5 -48q88 0 170 57q29 20 139 123q-98 84 -146 115q-94 61 -170 61zM1069 342q74 0 130 50t56 122q0 74 -52 130t-126 56q-76 0 -170 -61q-47 -31 -145 -115q104 -98 137 -123q84 -59 170 -59z" />
<glyph horiz-adv-x="1224" d="M1196 0h-1196l635 1366zM131 98h817l-385 928z" />
<glyph horiz-adv-x="989" d="M414 0l-387 750l387 731h118l386 -731l-386 -750h-118zM473 1372l-326 -622l326 -644l326 644z" />
<glyph horiz-adv-x="1351" />
<glyph unicode="&#xa1;" horiz-adv-x="589" d="M100 981h267l122 -983h-501zM31 1450h405v-379h-405v379z" />
<glyph unicode="&#xa2;" horiz-adv-x="1097" d="M496 311v488q-37 -35 -49.5 -106.5t-12.5 -145.5q0 -82 11.5 -139.5t50.5 -96.5zM496 1255h149v-151q174 -18 281 -131q98 -102 137 -283l-356 -31q-12 59 -25.5 86t-36.5 48v-496q31 20 47.5 55t24.5 78l346 -33q0 -166 -127 -282q-117 -106 -291 -135v-170h-149v165 q-225 20 -358.5 181t-133.5 391q0 233 130 383.5t362 173.5v151z" />
<glyph unicode="&#xa3;" horiz-adv-x="1435" d="M-51 309l78 -2q139 0 196 33q80 45 80 176q0 63 -16 133h-176v258h135q-16 82 -17 156q0 201 166 323q150 111 359 111q168 0 288.5 -72.5t184.5 -224.5l-328 -113q-18 53 -43 78q-33 33 -86 33q-51 0 -79.5 -35t-28.5 -92q0 -43 4 -65.5t20 -98.5h223v-260h-196 q0 -111 -32 -184.5t-114 -155.5h273q100 0 148 40t81 136q84 -12 166 -28q111 -25 164 -35l-10 -49q-39 -195 -189 -291q-135 -88 -342 -88l-909 6v311z" />
<glyph unicode="&#xa7;" horiz-adv-x="1138" d="M328 92q33 -66 88 -95.5t133 -29.5q55 0 88 13q51 18 51 63q0 59 -166 100q-236 57 -309 101q-166 94 -166 286q0 100 44 174t134 134q-59 76 -82 123q-31 66 -30 145q0 176 137 276q123 90 307 91q186 0 297 -71t178 -243l-262 -51q-23 70 -72 101.5t-125 31.5 q-57 0 -98 -11t-41 -52q0 -31 12.5 -46.5t44 -32t102.5 -30.5t155 -31q135 -33 223 -120q100 -98 100 -232q0 -102 -36 -166.5t-124 -136.5q57 -68 85 -128t28 -138q0 -184 -143 -291q-129 -96 -322 -96q-201 0 -320.5 73.5t-193.5 255.5zM633 487q51 0 92 29t41 80 q0 72 -113 109q-80 27 -172 26q-41 0 -78.5 -33.5t-37.5 -74.5q0 -72 102 -109q76 -27 166 -27z" />
<glyph unicode="&#xa8;" horiz-adv-x="0" d="M-279 1290q0 45 36 77t83 32q45 0 79 -36t34 -83q0 -45 -36 -79t-83 -34t-80 37t-33 86zM158 1399q47 0 81.5 -35t34.5 -84q0 -45 -35.5 -79t-82.5 -34q-43 0 -78 35t-35 78q0 49 33 84t82 35z" />
<glyph unicode="&#xa9;" horiz-adv-x="1581" d="M1063 1028l8 -254h-41q-16 90 -80.5 148.5t-156.5 58.5q-125 0 -201 -111q-68 -98 -68 -229q0 -139 64 -219q72 -90 207 -90q100 0 166 39q8 6 92 65l22 -33q-74 -74 -131 -106q-76 -41 -166 -41q-172 0 -276.5 106.5t-104.5 276.5q0 164 104.5 279.5t266.5 115.5 q37 0 78 -10q109 -27 131 -27q39 0 47 31h39zM768 1341q285 0 485.5 -200.5t200.5 -485.5t-200.5 -485.5t-485.5 -200.5t-485.5 201t-200.5 485q0 285 200.5 485.5t485.5 200.5zM768 49q250 0 428 178.5t178 427.5q0 250 -178 428.5t-428 178.5t-428 -178.5t-178 -428.5 t178 -428t428 -178z" />
<glyph unicode="&#xab;" horiz-adv-x="759" d="M209 918h141l-112 -312l112 -295h-143l-187 303zM541 915h147l-113 -297l113 -307h-147l-191 307z" />
<glyph unicode="&#xac;" horiz-adv-x="1427" d="M16 571h1321v-571h-110v463h-1211v108z" />
<glyph unicode="&#xad;" horiz-adv-x="630" d="M53 762h508v-328h-508v328z" />
<glyph unicode="&#xae;" horiz-adv-x="1581" d="M766 -39q-283 0 -484.5 199.5t-201.5 484.5t200.5 485.5t485.5 200.5q283 0 484.5 -201.5t201.5 -484.5t-200.5 -483.5t-485.5 -200.5zM764 1251q-252 0 -428 -178t-176 -430t178 -428t428 -176t428 178t178 428t-178 428t-430 178zM664 393q0 -33 26.5 -45t65.5 -12v-37 h-318v37q35 0 60 8q39 14 39 43v574q0 37 -13.5 48t-44.5 11h-30v35h339q113 0 181 -35q90 -47 90 -150q0 -86 -57.5 -143t-143.5 -57l240 -305q23 -29 69 -29v-37h-188l-264 352h-51v-258zM664 696q111 0 170 25q92 39 92 135q0 80 -35 112.5t-119 41.5l-67 4 q-16 0 -29.5 -12.5t-13.5 -28.5z" />
<glyph unicode="&#xb0;" horiz-adv-x="548" d="M172 764q-123 0 -211 86t-88 211q0 121 88 209t211 88t211 -86t88 -211q0 -123 -89 -210t-210 -87zM170 1280q-92 0 -154.5 -64.5t-62.5 -154.5t63.5 -153.5t155.5 -63.5q88 0 153.5 63.5t65.5 153.5q0 88 -65.5 153.5t-155.5 65.5z" />
<glyph unicode="&#xb1;" horiz-adv-x="1097" d="M481 811v471h109v-471h471v-111h-471v-469h-109v469h-471v111h471zM10 0v109h1051v-109h-1051z" />
<glyph unicode="&#xb4;" horiz-adv-x="0" d="M252 1536l76 -156l-482 -200l-57 118z" />
<glyph unicode="&#xb5;" horiz-adv-x="1153" d="M281 993v-659q0 -100 41 -160q49 -70 145 -70q66 0 131.5 45.5t91.5 106.5v737h172v-762q0 -59 25.5 -113.5t79.5 -54.5q55 0 77 46q18 63 31 94l39 -2q-27 -104 -78 -164q-61 -70 -164 -70q-86 0 -129 58q-31 43 -53 141q-45 -76 -136 -137.5t-173 -61.5q-61 0 -109 29 q-57 43 -92 67v-45q0 -51 43 -198q23 -78 23 -121q0 -55 -21 -92q-27 -49 -75 -49q-47 0 -72 44t-25 95q0 53 17 121q39 160 39 200v975h172z" />
<glyph unicode="&#xb6;" horiz-adv-x="1366" d="M1104 1446v-111h-70v-1677h-119v1677h-294v-1677h-119v995q-152 25 -237 128.5t-85 256.5q0 197 126 302.5t327 105.5h471z" />
<glyph unicode="&#xb7;" horiz-adv-x="344" d="M193 784q80 0 132 -52t52 -132q0 -78 -55.5 -131t-135.5 -53q-72 0 -125 53t-53 127q0 78 53.5 133t131.5 55z" />
<glyph unicode="&#xb8;" horiz-adv-x="0" d="M-164 -268q43 -14 92 -31.5t88 -17.5q86 0 86 77q0 45 -66.5 64.5t-123.5 19.5l63 166h86l-32 -84q92 -12 143 -51q66 -49 66 -133q0 -76 -52.5 -117t-134.5 -41q-59 0 -122.5 20.5t-129.5 53.5z" />
<glyph unicode="&#xbb;" horiz-adv-x="759" d="M152 625l-113 295h145l187 -304l-189 -301h-147zM489 625l-116 293h149l183 -302l-189 -303h-141z" />
<glyph unicode="&#xbf;" horiz-adv-x="1138" d="M702 981l5 -51q0 -172 -139.5 -305t-139.5 -228q0 -57 36 -99t93 -42q80 0 123 84q35 70 35 156l379 -41q-47 -236 -168 -355q-135 -133 -367 -133q-252 0 -397 99q-172 117 -172 358q0 150 80 240q8 10 166 135q102 82 131 182h335zM319 1448h402v-367h-402v367z" />
<glyph unicode="&#xc0;" horiz-adv-x="1349" d="M352 1876l465 -238l-55 -112l-494 180zM403 1440h467l451 -1440h-453l-77 287h-402l-78 -285h-356zM711 600l-119 447l-125 -447h244z" />
<glyph unicode="&#xc1;" horiz-adv-x="1349" d="M866 1876l70 -160l-481 -192l-58 123zM403 1440h467l451 -1440h-453l-77 287h-402l-78 -285h-356zM711 600l-119 447l-125 -447h244z" />
<glyph unicode="&#xc2;" horiz-adv-x="1349" d="M614 1849l402 -303h-217l-191 121l-190 -115h-215zM403 1440h467l451 -1440h-453l-77 287h-402l-78 -285h-356zM711 600l-119 447l-125 -447h244z" />
<glyph unicode="&#xc3;" horiz-adv-x="1349" d="M467 1810q45 0 106 -20q137 -45 179 -45q39 0 82 18.5t73 44.5l99 -108q-61 -45 -117 -70q-72 -33 -133 -33q-45 0 -107 21q-141 47 -180 47q-45 0 -90 -22.5t-76 -59.5l-94 100q100 78 117 89q65 38 141 38zM403 1440h467l451 -1440h-453l-77 287h-402l-78 -285h-356z M711 600l-119 447l-125 -447h244z" />
<glyph unicode="&#xc4;" horiz-adv-x="1349" d="M403 1440h465l453 -1440h-453l-77 287h-402l-80 -285h-354zM711 600l-119 447l-125 -447h244zM362 1677q0 41 39 72t80 31q47 0 78 -35t31 -82t-36 -77t-85 -30q-39 0 -73 28t-34 67v26zM801 1780q45 0 77.5 -33t32.5 -80q0 -49 -32.5 -80t-83.5 -31q-47 0 -79 34t-32 83 q0 43 36 75t81 32z" />
<glyph unicode="&#xc5;" horiz-adv-x="1349" d="M403 1440h465l453 -1440h-453l-77 287h-402l-80 -285h-354zM711 600l-119 447l-125 -447h244zM453 1688q0 74 53 125t127 51q72 0 126 -52.5t54 -123.5q0 -78 -52 -130.5t-130 -52.5q-74 0 -126 54.5t-52 128.5zM637 1614q27 0 49.5 18.5t22.5 44.5q0 27 -9 45 q-16 37 -61 37q-78 0 -78 -69q0 -33 21.5 -54.5t54.5 -21.5z" />
<glyph unicode="&#xc6;" horiz-adv-x="1982" d="M575 1446h1301v-336h-649v-209h524v-326h-522v-227h651v-350h-1083v299h-363l-131 -301h-379zM799 600v555l-236 -555h236z" />
<glyph unicode="&#xc7;" horiz-adv-x="1349" d="M457 -268q43 -14 92 -31.5t86 -17.5q88 0 88 77q0 45 -66.5 64.5t-126.5 19.5l66 166h86l-33 -84q88 -12 142 -53q66 -49 65 -131q0 -76 -52 -117t-132 -41q-55 0 -128 22.5t-124 51.5zM870 870q0 109 -41 181q-51 88 -153 88q-131 0 -178 -172q-27 -96 -27 -281 q0 -156 31 -240q49 -133 176 -133q82 0 138 75t56 159l406 -31l-12 -74q-45 -219 -204 -345t-386 -126q-319 0 -496 217q-164 203 -164 531q0 330 156 530q172 223 492 224q262 0 440 -161t178 -419z" />
<glyph unicode="&#xc8;" d="M307 1876l467 -238l-55 -112l-494 180zM92 1448h1067v-338h-629v-207h502v-328h-500v-229h627v-346h-1067v1448z" />
<glyph unicode="&#xc9;" d="M821 1876l72 -160l-483 -192l-56 123zM92 1448h1067v-338h-629v-207h502v-328h-500v-229h627v-346h-1067v1448z" />
<glyph unicode="&#xca;" d="M569 1849l404 -303h-219l-189 121l-190 -115h-217zM92 1448h1067v-338h-629v-207h502v-328h-500v-229h627v-346h-1067v1448z" />
<glyph unicode="&#xcb;" d="M412 1784q43 0 75.5 -33t32.5 -74q0 -47 -34.5 -81.5t-82.5 -34.5q-47 0 -79.5 32.5t-32.5 79.5t36 79t85 32zM719 1784q55 0 89 -30t34 -83q0 -47 -37 -79.5t-84 -32.5q-43 0 -76 36.5t-33 81.5q0 39 34 73t73 34zM92 1448h1067v-338h-629v-207h502v-328h-500v-229h627 v-346h-1067v1448z" />
<glyph unicode="&#xcc;" horiz-adv-x="675" d="M59 1876l467 -238l-55 -112l-494 180zM123 1444h440v-1446h-440v1446z" />
<glyph unicode="&#xcd;" horiz-adv-x="675" d="M582 1876l71 -160l-481 -192l-57 123zM131 1444h440v-1446h-440v1446z" />
<glyph unicode="&#xce;" horiz-adv-x="675" d="M313 1849l404 -303h-219l-189 121l-190 -115h-215zM115 1444h440v-1446h-440v1446z" />
<glyph unicode="&#xcf;" horiz-adv-x="675" d="M182 1784q43 0 75 -34t32 -79t-35 -77.5t-82 -32.5t-80 32.5t-33 79.5t36 79t87 32zM487 1784q49 0 87 -30t38 -79q0 -47 -36.5 -81.5t-86.5 -34.5q-43 0 -75.5 36.5t-32.5 81.5q0 39 33.5 73t72.5 34zM139 1444h441v-1446h-441v1446z" />
<glyph unicode="&#xd1;" horiz-adv-x="1476" d="M545 1810q45 0 176 -43q68 -23 108 -22q39 0 82 18.5t74 44.5l96 -106q-68 -49 -116 -72q-70 -33 -134 -33q-45 0 -106 21q-141 47 -180 47q-47 0 -87 -21.5t-79 -60.5l-94 100q117 86 118 89q66 38 142 38zM82 1450h424q12 -20 153 -242q96 -150 154 -243 q88 -141 152 -246v727h366v-1446l-364 -2q-66 109 -174 283q-98 158 -175 282q-113 184 -169 289v-852h-367v1450z" />
<glyph unicode="&#xd2;" horiz-adv-x="1476" d="M422 1876l467 -238l-55 -112l-496 180zM702 1479q315 0 506 -211q182 -203 183 -523q0 -344 -179 -552q-188 -221 -526 -222q-305 0 -491.5 203t-186.5 508q0 350 168 563q184 234 526 234zM696 299q139 0 189 150q31 92 30 266q0 186 -28 276q-51 160 -195 160 q-127 0 -178 -141q-33 -92 -33 -250q0 -190 27 -287q49 -174 188 -174z" />
<glyph unicode="&#xd3;" horiz-adv-x="1476" d="M936 1876l70 -160l-482 -192l-55 123zM702 1479q315 0 506 -211q182 -203 183 -523q0 -344 -179 -552q-188 -221 -526 -222q-305 0 -491.5 203t-186.5 508q0 350 168 563q184 234 526 234zM696 299q139 0 189 150q31 92 30 266q0 186 -28 276q-51 160 -195 160 q-127 0 -178 -141q-33 -92 -33 -250q0 -190 27 -287q49 -174 188 -174z" />
<glyph unicode="&#xd4;" horiz-adv-x="1476" d="M684 1849l401 -303h-217l-188 121l-191 -115h-217zM702 1479q315 0 506 -211q182 -203 183 -523q0 -344 -179 -552q-188 -221 -526 -222q-305 0 -491.5 203t-186.5 508q0 350 168 563q184 234 526 234zM696 299q139 0 189 150q31 92 30 266q0 186 -28 276 q-51 160 -195 160q-127 0 -178 -141q-33 -92 -33 -250q0 -190 27 -287q49 -174 188 -174z" />
<glyph unicode="&#xd5;" horiz-adv-x="1476" d="M539 1810q45 0 176 -43q68 -23 108 -22q39 0 82 18.5t74 44.5l96 -106q-68 -49 -117 -72q-70 -33 -133 -33q-45 0 -106 21q-141 47 -180 47q-47 0 -87 -21.5t-79 -60.5l-94 100q117 86 118 89q66 38 142 38zM700 1479q315 0 506 -211q182 -203 183 -523q0 -344 -179 -552 q-188 -221 -526 -222q-305 0 -491.5 203t-186.5 508q0 350 168 563q184 234 526 234zM694 299q139 0 189 150q31 92 30 266q0 186 -28 276q-51 160 -195 160q-127 0 -178 -141q-33 -92 -33 -250q0 -190 27 -287q49 -174 188 -174z" />
<glyph unicode="&#xd6;" horiz-adv-x="1476" d="M702 1479q315 0 506 -211q182 -203 183 -523q0 -344 -179 -552q-188 -221 -526 -222q-305 0 -491.5 203t-186.5 508q0 350 168 563q184 234 526 234zM696 299q139 0 189 150q31 92 30 266q0 186 -28 276q-51 160 -195 160q-127 0 -178 -141q-33 -92 -33 -250 q0 -190 27 -287q49 -174 188 -174zM428 1679q0 43 33 74t76 31q51 0 84.5 -34t33.5 -85q0 -49 -37.5 -79t-87.5 -30q-43 0 -72.5 39t-29.5 84zM748 1677q0 43 35.5 75t78.5 32q47 0 82 -35t35 -84t-38 -79t-89 -30q-45 0 -74.5 37t-29.5 84z" />
<glyph unicode="&#xd8;" horiz-adv-x="1476" d="M205 168q-102 154 -139 250q-45 121 -46 284q0 328 183 545q195 231 518 232q80 0 162 -23.5t166 -62.5l114 170l232 -17l-195 -280q98 -121 142 -237t44 -269q0 -350 -172 -563q-186 -231 -528 -232q-66 0 -123 15q-6 2 -190 67l-117 -160l-238 13zM850 1098 q-33 31 -55 43q-33 18 -68 18h-41q-115 0 -172 -176q-41 -127 -41 -274v-78l2 -74q90 123 236 336q110 164 139 205zM682 289q139 0 201 155q43 111 43 279v76l-2 80l-367 -537q27 -23 59.5 -38t65.5 -15z" />
<glyph unicode="&#xd9;" horiz-adv-x="1390" d="M387 1876l467 -238l-57 -112l-492 180zM78 1448h448v-959q0 -80 52.5 -126t132.5 -46q98 0 151 55.5t53 153.5v920h349v-891q0 -299 -140.5 -437t-441.5 -138q-256 0 -412 94q-193 117 -192 356v1018z" />
<glyph unicode="&#xda;" horiz-adv-x="1390" d="M901 1876l72 -160l-481 -192l-58 123zM78 1448h448v-959q0 -80 52.5 -126t132.5 -46q98 0 151 55.5t53 153.5v920h349v-891q0 -299 -140.5 -437t-441.5 -138q-256 0 -412 94q-193 117 -192 356v1018z" />
<glyph unicode="&#xdb;" horiz-adv-x="1390" d="M649 1849l404 -303h-219l-189 121l-190 -115h-215zM78 1448h448v-959q0 -80 52.5 -126t132.5 -46q98 0 151 55.5t53 153.5v920h349v-891q0 -299 -140.5 -437t-441.5 -138q-256 0 -412 94q-193 117 -192 356v1018z" />
<glyph unicode="&#xdc;" horiz-adv-x="1390" d="M78 1448h448v-959q0 -80 52.5 -126t132.5 -46q98 0 151 55.5t53 153.5v920h349v-914q0 -287 -148.5 -419.5t-439.5 -132.5q-252 0 -408 96q-190 117 -190 354v1018zM428 1675q0 41 40 71t81 30q43 0 76.5 -32t33.5 -73q0 -49 -32.5 -84t-83.5 -35q-53 0 -84 35t-31 88z M862 1780q49 0 83 -32t34 -81q0 -51 -38 -81t-91 -30q-35 0 -67.5 35t-32.5 72q0 49 31.5 83t80.5 34z" />
<glyph unicode="&#xdf;" horiz-adv-x="1349" d="M-14 993h86q29 291 182.5 430.5t447.5 139.5q164 0 291 -74q154 -90 154 -246q0 -152 -96 -244q-88 -86 -244 -108q213 -72 336 -172q168 -137 168 -322q0 -201 -158 -321q-143 -111 -350 -111q-59 0 -117.5 11.5t-124.5 33.5l92 289q41 -20 72 -32.5t66 -12.5 q57 0 92 18q49 25 49 78q0 70 -200 174.5t-200 282.5q0 66 33 141q23 53 72 129q76 18 90 27q41 23 41 80q0 41 -34 72.5t-77 31.5q-115 0 -155 -86q-31 -63 -31 -188l2 -301v-846h-403v862h-84v264z" />
<glyph unicode="&#xe0;" d="M297 1532l467 -240l-55 -114l-494 184zM567 842q-59 0 -96 -31q-29 -25 -57 -86l-389 39q39 180 215 264q141 68 348 68q246 0 370 -78q156 -98 156 -330v-504q0 -102 39 -188h-414l-18 149q-45 -84 -146 -129q-88 -39 -194 -39q-150 0 -256 76q-119 84 -119 230 q0 242 246 346q174 74 455 73q0 76 -32 108t-108 32zM434 340q0 -106 109 -107q90 0 129 66q33 53 33 147l-3 56q-100 -12 -165 -41q-103 -45 -103 -121z" />
<glyph unicode="&#xe1;" d="M809 1536l76 -156l-482 -200l-57 118zM567 842q-59 0 -96 -31q-29 -25 -57 -86l-389 39q39 180 215 264q141 68 348 68q246 0 370 -78q156 -98 156 -330v-504q0 -102 39 -188h-414l-18 149q-45 -84 -146 -129q-88 -39 -194 -39q-150 0 -256 76q-119 84 -119 230 q0 242 246 346q174 74 455 73q0 76 -32 108t-108 32zM434 340q0 -106 109 -107q90 0 129 66q33 53 33 147l-3 56q-100 -12 -165 -41q-103 -45 -103 -121z" />
<glyph unicode="&#xe2;" d="M559 1497l395 -299h-213l-184 119l-192 -119h-222zM567 842q-59 0 -96 -31q-29 -25 -57 -86l-389 39q39 180 215 264q141 68 348 68q246 0 370 -78q156 -98 156 -330v-504q0 -102 39 -188h-414l-18 149q-45 -84 -146 -129q-88 -39 -194 -39q-150 0 -256 76 q-119 84 -119 230q0 242 246 346q174 74 455 73q0 76 -32 108t-108 32zM434 340q0 -106 109 -107q90 0 129 66q33 53 33 147l-3 56q-100 -12 -165 -41q-103 -45 -103 -121z" />
<glyph unicode="&#xe3;" d="M408 1464q45 0 106 -20q137 -45 178 -45q45 0 81 15.5t77 47.5l94 -102q-92 -66 -144 -87.5t-104 -21.5q-51 0 -146 34t-142 34q-43 0 -91.5 -24.5t-70.5 -61.5l-96 104q88 70 118 88q68 39 140 39zM567 842q-59 0 -96 -31q-29 -25 -57 -86l-389 39q39 180 215 264 q141 68 348 68q246 0 370 -78q156 -98 156 -330v-504q0 -102 39 -188h-414l-18 149q-45 -84 -146 -129q-88 -39 -194 -39q-150 0 -256 76q-119 84 -119 230q0 242 246 346q174 74 455 73q0 76 -32 108t-108 32zM434 340q0 -106 109 -107q90 0 129 66q33 53 33 147l-3 56 q-100 -12 -165 -41q-103 -45 -103 -121z" />
<glyph unicode="&#xe4;" d="M711 719q0 127 -133 127q-121 0 -158 -119l-389 41q47 176 219 260q139 68 346 68q242 0 367 -80q156 -98 155 -326v-524q0 -39 10.5 -83t24.5 -85h-408l-26 149q-39 -84 -130 -127t-192 -43q-166 0 -270 78q-117 86 -117 246q0 219 256 322q184 74 445 73v23zM303 1296 q0 43 37 74t80 31q45 0 77.5 -37t32.5 -84q0 -45 -35.5 -77t-82.5 -32t-78 38t-31 87zM438 336q0 -43 25.5 -74t68.5 -31h37q74 0 111 76q29 59 29 142l-2 55q-133 -16 -201 -61.5t-68 -106.5zM735 1401q51 0 84 -33t33 -84q0 -49 -37 -79.5t-88 -30.5q-43 0 -73.5 34.5 t-30.5 77.5q0 47 31.5 81t80.5 34z" />
<glyph unicode="&#xe5;" d="M717 698q0 147 -142 148q-63 0 -98 -31q-27 -25 -59 -90l-387 41q74 193 225 266q125 61 352 62q240 0 355 -76q94 -61 129 -180q14 -51 21 -111.5t7 -126.5l-6 -289q0 -49 1 -97t5 -87t13.5 -69.5t17.5 -57.5h-403l-21 143q-55 -88 -144 -127t-204 -39 q-160 0 -263.5 86.5t-103.5 243.5q0 225 258 324q179 67 447 67zM580 1546q72 0 123 -55t51 -127q0 -76 -53.5 -127t-129.5 -51q-72 0 -125 51t-53 125q0 78 53.5 131t133.5 53zM440 342q0 -111 105 -111q94 0 133 66q31 53 31 156v53q-78 0 -166 -43q-103 -51 -103 -121z M573 1294q31 0 52.5 19.5t21.5 50.5q0 29 -18.5 52.5t-46.5 23.5q-31 0 -56.5 -17.5t-25.5 -48.5q0 -35 19 -57.5t54 -22.5z" />
<glyph unicode="&#xe6;" horiz-adv-x="1687" d="M625 762q0 35 -35 63.5t-68 28.5q-121 0 -151 -121l-355 37q29 176 191 266q137 76 332 76q158 0 284 -74q121 70 258 70q274 0 414 -164q131 -156 131 -434v-68h-659v-24q0 -76 44 -122t119 -46q72 0 109 53q8 10 39 72l346 -21l-16 -67q-33 -137 -185 -230 q-139 -84 -290 -84q-141 0 -236.5 38t-191.5 139q-57 -92 -175 -138q-96 -37 -223 -37q-143 0 -229 94.5t-86 239.5q0 143 110 234q86 70 250 108q100 25 266 43zM391 328q0 -47 25.5 -76t72.5 -29q76 0 111 74q27 55 27 139l-2 62q-119 -23 -181 -72q-53 -43 -53 -98z M1247 662v28q0 70 -30 115q-37 53 -103 53q-78 0 -113.5 -56.5t-35.5 -139.5h282z" />
<glyph unicode="&#xe7;" horiz-adv-x="1097" d="M338 -268q100 -39 118.5 -44t59.5 -5q86 0 86 77q0 45 -66.5 64.5t-123.5 19.5l63 166h88l-35 -84q88 -10 148.5 -56t60.5 -130q0 -72 -55 -114t-129 -42q-55 0 -127 21.5t-125 52.5zM707 659q-16 80 -43 115q-35 47 -109 47t-102 -108q-18 -68 -19 -168q0 -109 23 -170 q35 -96 125 -96q61 0 96 47q29 37 39 104l346 -33q0 -190 -162 -313q-145 -111 -346 -111q-248 0 -399.5 162t-151.5 410q0 258 153.5 409.5t411.5 151.5q207 0 328 -105.5t166 -310.5z" />
<glyph unicode="&#xe8;" d="M295 1532l467 -240l-55 -114l-494 184zM424 461v-27q0 -76 43 -127t119 -51q68 0 105.5 30.5t70.5 98.5l395 -29q-74 -195 -220 -287t-359 -92q-270 0 -431 150q-166 156 -165 424q0 260 173 410.5t437 150.5q229 0 397 -146.5t168 -369.5l2 -102v-33h-735zM737 680 q-6 82 -40.5 129t-112.5 47q-66 0 -114 -44t-48 -110v-22h315z" />
<glyph unicode="&#xe9;" d="M807 1536l76 -156l-482 -200l-57 118zM424 461v-27q0 -76 43 -127t119 -51q68 0 105.5 30.5t70.5 98.5l395 -29q-74 -195 -220 -287t-359 -92q-270 0 -431 150q-166 156 -165 424q0 260 173 410.5t437 150.5q229 0 397 -146.5t168 -369.5l2 -102v-33h-735zM737 680 q-6 82 -40.5 129t-112.5 47q-66 0 -114 -44t-48 -110v-22h315z" />
<glyph unicode="&#xea;" d="M557 1497l395 -299h-213l-184 119l-193 -119h-221zM424 461v-27q0 -76 43 -127t119 -51q68 0 105.5 30.5t70.5 98.5l395 -29q-74 -195 -220 -287t-359 -92q-270 0 -431 150q-166 156 -165 424q0 260 173 410.5t437 150.5q229 0 397 -146.5t168 -369.5l2 -102v-33h-735z M737 680q-6 82 -40.5 129t-112.5 47q-66 0 -114 -44t-48 -110v-22h315z" />
<glyph unicode="&#xeb;" d="M276 1290q0 45 36 77t83 32t79 -38t32 -87q0 -43 -38 -75t-81 -32q-49 0 -80 37t-31 86zM713 1399q47 0 81.5 -35t34.5 -84q0 -47 -36.5 -80t-85.5 -33q-45 0 -77 38t-32 87q0 45 35 76t80 31zM424 461v-27q0 -76 43 -127t119 -51q68 0 105.5 30.5t70.5 98.5l395 -29 q-74 -195 -220 -287t-359 -92q-270 0 -431 150q-166 156 -165 424q0 260 173 410.5t437 150.5q229 0 397 -146.5t168 -369.5l2 -102v-33h-735zM737 680q-6 82 -40.5 129t-112.5 47q-66 0 -114 -44t-48 -110v-22h315z" />
<glyph unicode="&#xec;" horiz-adv-x="589" d="M20 1532l465 -240l-55 -114l-493 184zM88 1079h420v-1079h-420v1079z" />
<glyph unicode="&#xed;" horiz-adv-x="589" d="M539 1536l75 -156l-479 -200l-59 118zM96 1079h420v-1079h-420v1079z" />
<glyph unicode="&#xee;" horiz-adv-x="589" d="M272 1497l396 -299h-215l-185 119l-190 -119h-221zM78 1079h420v-1079h-420v1079z" />
<glyph unicode="&#xef;" horiz-adv-x="589" d="M10 1290q0 45 36 77t83 32q41 0 77 -34t36 -77q0 -49 -34 -85t-85 -36q-47 0 -80 37t-33 86zM444 1399q45 0 83 -34t38 -79q0 -51 -35.5 -85t-87.5 -34q-41 0 -75.5 35t-34.5 78q0 45 32.5 82t79.5 37zM98 1079h420v-1079h-420v1079z" />
<glyph unicode="&#xf1;" d="M414 1464q45 0 106 -20q137 -45 178 -45q45 0 81 15.5t77 47.5l94 -102q-92 -66 -144 -87.5t-104 -21.5q-51 0 -146 34t-142 34q-43 0 -91.5 -24.5t-70.5 -61.5l-96 104q88 70 118 88q68 39 140 39zM51 1079h389l6 -153q72 92 142.5 130t183.5 38q164 0 257 -93.5 t93 -257.5v-745h-420v686q0 55 -28.5 92t-81.5 37q-59 0 -87 -48t-28 -112v-653h-426v1079z" />
<glyph unicode="&#xf2;" d="M301 1532l467 -240l-55 -114l-494 184zM588 1108q266 0 423.5 -147.5t157.5 -413.5q0 -262 -160.5 -419t-422.5 -157q-264 0 -428 162t-164 426q0 244 173 396.5t421 152.5zM584 231q92 0 127 123q20 74 20 201q0 119 -22 190q-35 115 -127 115q-94 0 -127 -127 q-20 -78 -21 -207q0 -115 23 -184q35 -111 127 -111z" />
<glyph unicode="&#xf3;" d="M813 1536l76 -156l-481 -200l-58 118zM588 1108q266 0 423.5 -147.5t157.5 -413.5q0 -262 -160.5 -419t-422.5 -157q-264 0 -428 162t-164 426q0 244 173 396.5t421 152.5zM584 231q92 0 127 123q20 74 20 201q0 119 -22 190q-35 115 -127 115q-94 0 -127 -127 q-20 -78 -21 -207q0 -115 23 -184q35 -111 127 -111z" />
<glyph unicode="&#xf4;" d="M563 1497l395 -299h-213l-184 119l-192 -119h-222zM588 1108q266 0 423.5 -147.5t157.5 -413.5q0 -262 -160.5 -419t-422.5 -157q-264 0 -428 162t-164 426q0 244 173 396.5t421 152.5zM584 231q92 0 127 123q20 74 20 201q0 119 -22 190q-35 115 -127 115 q-94 0 -127 -127q-20 -78 -21 -207q0 -115 23 -184q35 -111 127 -111z" />
<glyph unicode="&#xf5;" d="M412 1464q45 0 106 -20q137 -45 178 -45q45 0 81 15.5t77 47.5l94 -102q-92 -66 -144 -87.5t-104 -21.5q-51 0 -146 34t-142 34q-43 0 -91.5 -24.5t-70.5 -61.5l-96 104q88 70 118 88q68 39 140 39zM588 1108q266 0 423.5 -147.5t157.5 -413.5q0 -262 -160.5 -419 t-422.5 -157q-264 0 -428 162t-164 426q0 244 173 396.5t421 152.5zM584 231q92 0 127 123q20 74 20 201q0 119 -22 190q-35 115 -127 115q-94 0 -127 -127q-20 -78 -21 -207q0 -115 23 -184q35 -111 127 -111z" />
<glyph unicode="&#xf6;" d="M1169 561q0 -293 -163.5 -440.5t-458.5 -147.5q-248 0 -400.5 172t-152.5 424q0 238 172 388.5t414 150.5q264 0 421 -139q168 -148 168 -408zM311 1303q0 41 35 71.5t76 30.5q51 0 84 -33t33 -82q0 -47 -37 -79.5t-86 -32.5q-45 0 -75 39t-30 86zM588 229q92 0 125 121 q18 68 18 193q0 121 -20 192q-35 119 -125 119q-94 0 -129 -119q-23 -76 -23 -196q0 -127 21 -195q35 -115 133 -115zM633 1298q0 43 34.5 74t77.5 31q47 0 81 -34t34 -83q0 -45 -34.5 -77.5t-82.5 -32.5q-47 0 -78.5 37.5t-31.5 84.5z" />
<glyph unicode="&#xf7;" horiz-adv-x="1097" d="M10 578h1045v-109h-1045v109zM522 905q45 0 78 -32.5t33 -77.5t-33 -78t-78 -33t-77.5 33t-32.5 78t32.5 77.5t77.5 32.5zM522 365q47 0 79 -34t32 -79t-33 -78t-78 -33t-77.5 33t-32.5 78t31.5 79t78.5 34z" />
<glyph unicode="&#xf8;" d="M954 1198h144l-135 -203q211 -166 211 -438q0 -268 -164 -428t-435 -160q-61 0 -121.5 15.5t-134.5 46.5l-86 -135h-155l131 196q-203 170 -203 438q0 260 156.5 421t417.5 161q68 0 132 -13.5t142 -37.5zM690 807q-35 55 -90 55q-109 0 -147 -129q-23 -76 -23 -221 l4 -74q82 127 121 189q74 112 135 180zM582 213q94 0 135 125q29 86 28 205v71q-6 31 -8 45l-262 -376q31 -43 53.5 -56.5t53.5 -13.5z" />
<glyph unicode="&#xf9;" d="M305 1532l467 -240l-55 -114l-496 184zM49 1077h420v-686q0 -47 20.5 -74.5t63.5 -27.5q68 0 103.5 47t35.5 117v626h424v-1081h-385l2 170q-68 -109 -141.5 -151t-200.5 -42q-172 0 -257 95.5t-85 267.5v739z" />
<glyph unicode="&#xfa;" d="M815 1536l76 -156l-479 -200l-60 118zM49 1077h420v-686q0 -47 20.5 -74.5t63.5 -27.5q68 0 103.5 47t35.5 117v626h424v-1081h-385l2 170q-68 -109 -141.5 -151t-200.5 -42q-172 0 -257 95.5t-85 267.5v739z" />
<glyph unicode="&#xfb;" d="M567 1497l396 -299h-215l-185 119l-190 -119h-221zM49 1077h420v-686q0 -47 20.5 -74.5t63.5 -27.5q68 0 103.5 47t35.5 117v626h424v-1081h-385l2 170q-68 -109 -141.5 -151t-200.5 -42q-172 0 -257 95.5t-85 267.5v739z" />
<glyph unicode="&#xfc;" d="M43 1081h420l-2 -704q0 -37 26.5 -61.5t63.5 -24.5q72 0 102.5 50t30.5 124v618h428v-1085h-389v170q-63 -109 -136 -151t-198 -42q-168 0 -257 93.5t-89 263.5v749zM434 1399q49 0 83 -30t34 -79t-34 -82.5t-83 -33.5q-47 0 -79.5 34.5t-32.5 81.5q0 45 33.5 77t78.5 32 zM756 1401q49 0 83.5 -33t34.5 -82t-34.5 -82t-83.5 -33q-47 0 -80 35t-33 82t33 80t80 33z" />
<glyph unicode="&#xff;" horiz-adv-x="1097" d="M217 1290q0 45 36 77t83 32t80 -37t33 -84q0 -45 -37 -78t-82 -33q-47 0 -80 37t-33 86zM653 1399q45 0 81 -34t36 -81q0 -49 -35 -82t-86 -33q-41 0 -75.5 35t-34.5 76q0 49 32.5 84t81.5 35zM406 1079q68 -211 98 -319q41 -139 86 -328q37 150 90 324q12 37 104 321 l297 2q-57 -141 -123 -336q-57 -170 -112 -340l-101 -292q-66 -186 -106 -261q-63 -113 -160.5 -165t-275.5 -52q-76 0 -154 13l-6 291q47 -6 117.5 -8.5t79.5 -2.5q51 0 88 21q47 27 47 76q0 18 -96 262q-59 150 -191 473q-88 217 -131 321h449z" />
<glyph unicode="&#x152;" horiz-adv-x="2021" d="M1927 1454v-338h-643v-205h522v-329h-518v-232h645v-350h-1065q-12 0 -30.5 -5t-34.5 -11q-29 -6 -72 -8.5t-82 -2.5q-324 0 -497 226q-160 205 -160 538q0 307 172 516q182 221 483 222q37 0 88 -7q119 -14 150 -14h1042zM678 311q129 0 176 160q27 92 27 266 q0 168 -29 256q-49 147 -180 148q-147 0 -195 -180q-25 -92 -24 -299q0 -135 45 -228q59 -123 180 -123z" />
<glyph unicode="&#x153;" horiz-adv-x="1769" d="M1165 1096q287 0 424 -185q121 -162 121 -458l-657 -2l-2 -25q0 -70 37.5 -125t103.5 -55q55 0 98 39t62 96l358 -25q-45 -186 -182 -283.5t-334 -97.5q-70 0 -131 15q-86 20 -207 82q-152 -98 -330 -99q-238 0 -393.5 164t-155.5 402q0 248 155 404.5t403 156.5 q96 0 172 -25q35 -12 159 -69q84 45 151.5 67.5t147.5 22.5zM526 236q90 0 123 124q18 70 19 201q0 109 -21 172q-33 102 -119 103q-82 0 -114 -121q-20 -76 -21 -189q0 -106 21 -176q32 -114 112 -114zM1327 666q0 74 -37 128t-106 54q-66 0 -103 -56.5t-37 -125.5h283z " />
<glyph unicode="&#x178;" horiz-adv-x="1349" d="M338 1686q0 39 40 68.5t81 29.5q45 0 75.5 -35t30.5 -80q0 -47 -34.5 -77.5t-84.5 -30.5q-41 0 -74.5 29.5t-33.5 70.5v25zM764 1784q55 0 90 -30t35 -85q0 -47 -36 -78.5t-87 -31.5q-45 0 -76 38.5t-31 88.5q0 35 34 66.5t71 31.5zM432 1448l260 -487l244 489h381 l-445 -834v-616h-436v610l-483 838h479z" />
<glyph unicode="&#x2c6;" horiz-adv-x="0" d="M4 1497l395 -299h-215l-184 119l-190 -119h-224z" />
<glyph unicode="&#x2dc;" horiz-adv-x="0" d="M-147 1464q45 0 176 -43q68 -23 108 -22q45 0 83 15.5t75 47.5l92 -102q-57 -47 -119.5 -78t-126.5 -31q-45 0 -106 21q-141 47 -180 47q-45 0 -94.5 -25.5t-71.5 -60.5l-95 104q104 80 117 88q66 39 142 39z" />
<glyph unicode="&#x2000;" horiz-adv-x="938" />
<glyph unicode="&#x2001;" horiz-adv-x="1876" />
<glyph unicode="&#x2002;" horiz-adv-x="938" />
<glyph unicode="&#x2003;" horiz-adv-x="1876" />
<glyph unicode="&#x2004;" horiz-adv-x="625" />
<glyph unicode="&#x2005;" horiz-adv-x="469" />
<glyph unicode="&#x2006;" horiz-adv-x="312" />
<glyph unicode="&#x2007;" horiz-adv-x="312" />
<glyph unicode="&#x2008;" horiz-adv-x="234" />
<glyph unicode="&#x2009;" horiz-adv-x="375" />
<glyph unicode="&#x200a;" horiz-adv-x="104" />
<glyph unicode="&#x2010;" horiz-adv-x="630" d="M53 762h508v-328h-508v328z" />
<glyph unicode="&#x2011;" horiz-adv-x="630" d="M53 762h508v-328h-508v328z" />
<glyph unicode="&#x2012;" horiz-adv-x="630" d="M53 762h508v-328h-508v328z" />
<glyph unicode="&#x2013;" d="M31 758h1112v-324h-1112v324z" />
<glyph unicode="&#x2014;" horiz-adv-x="1349" d="M-49 731h1378v-262h-1378v262z" />
<glyph unicode="&#x2018;" horiz-adv-x="505" d="M49 1049l234 403h153l-162 -369h170v-385h-395v351z" />
<glyph unicode="&#x2019;" horiz-adv-x="505" d="M49 1446h391v-348l-221 -402h-166l170 373h-174v377z" />
<glyph unicode="&#x201a;" horiz-adv-x="475" d="M55 371h396v-348l-226 -402h-162l164 367h-172v383z" />
<glyph unicode="&#x201c;" horiz-adv-x="886" d="M35 1139l184 307h158l-141 -285h149v-338h-350v316zM465 1139l186 309h154l-141 -287h149v-338h-348v316z" />
<glyph unicode="&#x201d;" horiz-adv-x="886" d="M33 1448h348v-318l-178 -305h-158l143 287h-155v336zM467 1450h344v-322l-180 -303h-162l143 287h-145v338z" />
<glyph unicode="&#x201e;" horiz-adv-x="886" d="M35 322h354v-322l-186 -301h-164l143 283h-147v340zM612 -18h-145v340h346v-324l-180 -301h-168z" />
<glyph unicode="&#x2022;" horiz-adv-x="681" d="M608 723q0 -113 -74.5 -189.5t-187.5 -76.5q-111 0 -191.5 78.5t-80.5 187.5t81 187.5t191 78.5q111 0 186.5 -77.5t75.5 -188.5z" />
<glyph unicode="&#x2026;" horiz-adv-x="2048" d="M449 0h-213v217h213v-217zM1130 0h-212v217h212v-217zM1812 0h-213v217h213v-217z" />
<glyph unicode="&#x202f;" horiz-adv-x="375" />
<glyph unicode="&#x2039;" horiz-adv-x="681" d="M502 221l-322 252v189l322 251v-180l-215 -166l215 -166v-180z" />
<glyph unicode="&#x203a;" horiz-adv-x="681" d="M180 401l215 166l-215 166v180l322 -251v-189l-322 -252v180z" />
<glyph unicode="&#x205f;" horiz-adv-x="469" />
<glyph unicode="&#x2122;" horiz-adv-x="1781" d="M653 1337l6 -192l-36 -2v18q0 88 -76 115q-45 16 -150 16v-618q0 -35 29 -45.5t70 -10.5v-36h-318v36q47 0 66 7q37 12 37 49l-2 616q-111 0 -154 -18q-72 -31 -72 -129l-37 2l7 192h630zM942 1337l264 -573l250 573h221v-37h-18q-37 0 -57.5 -9t-20.5 -40v-577 q0 -35 28.5 -45.5t69.5 -10.5v-36h-317v36q47 0 65 7q37 12 37 49v551l-266 -643h-37l-287 610v-518q0 -41 52 -51q20 -4 51 -5v-36h-256v36q47 0 63 7q37 12 37 49v557q0 51 -24.5 60t-53.5 9h-26v37h225z" />
<glyph unicode="&#x25fc;" horiz-adv-x="1085" d="M0 1085h1085v-1085h-1085v1085z" />
</font>
</defs>
</svg>
