<?xml version="1.0" encoding="UTF-8"?>
<svg width="127px" height="29px" viewBox="0 0 127 29" version="1.1" xmlns="http://www.w3.org/2000/svg" xmlns:xlink="http://www.w3.org/1999/xlink">
    <!-- Generator: Sketch 48.1 (47250) - http://www.bohemiancoding.com/sketch -->
    <title>logo@5x copy</title>
    <desc>Created with Sketch.</desc>
    <defs></defs>
    <g id="Page-3" stroke="none" stroke-width="1" fill="none" fill-rule="evenodd">
        <g id="logo@5x-copy" transform="translate(0.000000, -1.000000)">
            <path d="M5.49913043,29.4365217 L5.49913043,26.1343478 L8.39695652,26.1343478 C8.79259176,26.1241488 9.18506864,26.2072616 9.5426087,26.3769565 C9.8307021,26.481739 10.0309625,26.7452394 10.0547826,27.0508696 C10.064203,27.1134154 10.064203,27.1770194 10.0547826,27.2395652 C10.0333601,27.3137496 9.99662863,27.3826212 9.94695652,27.4417391 C9.81876118,27.6143703 9.64652039,27.7493698 9.44826087,27.8326087 C9.14678559,27.9631428 8.81947202,28.0230735 8.49130435,28.0078261 L6.46956522,28.0078261 L6.46956522,29.3556522 L5.49913043,29.4365217 Z M8.39695652,27.5630435 L8.50478261,27.5630435 L8.73391304,27.4821739 C8.8321187,27.4377486 8.92300964,27.3786695 9.00347826,27.3069565 C9.06278015,27.2574977 9.09318102,27.1814955 9.08434783,27.1047826 C9.04088937,26.9904672 8.95354023,26.8982654 8.84173913,26.8486957 C8.65409455,26.7705842 8.4518262,26.7338082 8.24869565,26.7408696 L6.46956522,26.7408696 L6.46956522,27.6034783 L8.39695652,27.5630435 Z" id="Shape" fill="#007067" fill-rule="nonzero"></path>
            <polygon id="Shape" fill="#007067" fill-rule="nonzero" points="20.4734783 29.4365217 20.4734783 28.0213043 17.5756522 28.0213043 17.5756522 29.4365217 16.6186957 29.4365217 16.6186957 26.1343478 17.5756522 26.1343478 17.5756522 27.4417391 20.4734783 27.4417391 20.4734783 26.1343478 21.4304348 26.1343478 21.4304348 29.4365217"></polygon>
            <path d="M31.9434783,29.4365217 L31.2830435,28.5334783 L29.1130435,28.5334783 L28.52,29.4365217 L27.3878261,29.4365217 L29.6521739,26.1343478 L30.7169565,26.1343478 L33.0621739,29.45 L31.9434783,29.4365217 Z M30.9865217,28.0886957 L30.2182609,26.8756522 L29.3421739,28.0886957 L30.9865217,28.0886957 Z" id="Shape" fill="#007067" fill-rule="nonzero"></path>
            <path d="M43.0018126,29.5845195 L42.9736446,29.5464773 C42.9323985,29.4809602 42.9002064,29.408046 42.8765654,29.3277347 C42.8483973,29.2548205 42.8403493,29.1797928 42.8333073,29.1068786 C42.8333073,29.0994815 42.8292833,29.0762335 42.8292833,29.0524571 L42.8247563,29.0196986 C42.8202293,28.9911669 42.8202293,28.9769011 42.8202293,28.9679189 C42.8202293,28.9488978 42.8162053,28.9277633 42.8162053,28.9108557 L42.8162053,28.8569625 C42.8076543,28.6799607 42.7689232,28.5156395 42.6929701,28.3787933 C42.660778,28.3127478 42.5360338,28.1838271 41.9455107,28.1341609 L40.0396402,28.1341609 L40.0396402,29.5845195 L39.0869565,29.5845195 L39.0869565,26.0127802 L42.2126042,26.0127802 C42.639149,26.0127802 43.0118726,26.095205 43.3207152,26.2595261 C43.6441448,26.4243756 43.8378001,26.6647812 43.9001722,26.9638351 L43.9067113,26.9754591 L43.9067113,26.9870831 C43.9067113,27.0483733 43.8981602,27.1170606 43.8896092,27.1783508 C43.8725072,27.2581337 43.8463511,27.3289344 43.8161711,27.3992068 C43.740721,27.517032 43.6481688,27.6116091 43.5365026,27.6887502 C43.4716155,27.7363029 43.3856023,27.7806855 43.2799721,27.8229546 C43.4499864,27.8937553 43.5661796,27.9883325 43.6310668,28.0892499 C43.7296549,28.2356067 43.77744,28.3883039 43.781967,28.5626639 L43.781967,28.737024 C43.77744,28.8828524 43.786494,28.9911669 43.8076201,29.0857441 C43.8292491,29.165527 43.9067113,29.2336859 44.0450365,29.2833521 L44.1008696,29.3113554 L44.1008696,29.5845195 L43.0018126,29.5845195 Z M42.0169368,27.5381665 C42.0360509,27.5408083 42.0511409,27.5408083 42.0576799,27.5408083 L42.113513,27.5408083 C42.3509294,27.5408083 42.5445848,27.4885003 42.6995091,27.3807141 C42.8463853,27.2771548 42.9198235,27.1783508 42.9243505,27.0747915 L42.9243505,27.0584122 C42.9198235,26.9638351 42.8403493,26.8697863 42.6929701,26.7847197 C42.5144047,26.679047 42.2211552,26.6198702 41.8117125,26.6082462 L40.0396402,26.6082462 L40.0396402,27.5381665 L42.0169368,27.5381665 Z" id="Fill-242" fill="#007067"></path>
            <polygon id="Shape" fill="#007067" fill-rule="nonzero" points="55.1665217 29.4365217 55.1665217 27.0778261 53.6030435 29.4365217 52.8752174 29.4365217 51.2982609 27.1182609 51.2982609 29.4365217 50.4221739 29.4365217 50.4221739 26.1343478 51.5813043 26.1343478 53.2391304 28.6817391 54.8969565 26.1343478 56.056087 26.1343478 56.056087 29.4365217"></polygon>
            <path d="M66.5286957,29.4365217 L65.8682609,28.5334783 L63.6847826,28.5334783 L63.0917391,29.4365217 L62,29.4365217 L64.2778261,26.1208696 L65.356087,26.1208696 L67.7013043,29.4365217 L66.5286957,29.4365217 Z M65.5717391,28.0886957 L64.8034783,26.8756522 L63.9408696,28.0886957 L65.5717391,28.0886957 Z" id="Shape" fill="#007067" fill-rule="nonzero"></path>
            <path d="M75.9858168,29.4632149 C75.0644618,29.4632149 74.3923426,29.3032773 73.9286007,28.9755522 C73.4337044,28.6345808 73.1870223,28.2278681 73.1870223,27.7598296 C73.1905974,27.6896729 73.1977476,27.6244222 73.2151124,27.5567185 C73.2329879,27.4934303 73.2544385,27.427689 73.2804857,27.3531169 C73.3943783,27.0317697 73.6620002,26.7324998 74.0818194,26.4636475 C74.4934669,26.1898891 75.1497535,26.039273 76.0251429,26.0127802 C76.1655933,26.0127802 76.3315802,26.0240642 76.5093139,26.0328951 C76.7079875,26.0544818 76.8918499,26.0804839 77.0665191,26.1246385 C77.3734672,26.1898891 77.6487501,26.2992944 77.9209686,26.4504011 C78.2008481,26.6054327 78.4087147,26.8262056 78.5333326,27.1127197 L78.5900235,27.2397868 L77.5445614,27.2397868 L77.5220893,27.1917074 C77.4087075,26.9812372 77.2136091,26.8262056 76.9490515,26.7192534 C76.6640648,26.6167167 76.3627347,26.5637312 76.0552759,26.5637312 L75.9858168,26.5637312 L75.9638554,26.5637312 C75.9510872,26.5661842 75.9378083,26.5661842 75.9291259,26.5661842 C75.5047101,26.5833555 75.1231956,26.6888358 74.7646639,26.8919469 C74.4209434,27.0734712 74.2478063,27.3403611 74.2263557,27.6921259 C74.2263557,28.1165004 74.3923426,28.4201858 74.738106,28.608088 C75.0951055,28.8004057 75.4868346,28.9034331 75.9163576,28.9034331 L75.9378083,28.9034331 C76.3581381,28.9034331 76.7432277,28.8268985 77.1022702,28.6738293 C77.4388405,28.529591 77.6140205,28.3436512 77.645175,28.1140474 L77.6533467,28.0355504 L78.7131092,28.0355504 L78.6712294,28.1577113 C78.6645899,28.1709577 78.6579504,28.1886195 78.6472251,28.2082438 C78.6451822,28.2322835 78.6385427,28.2519078 78.6298603,28.2695696 C78.6124956,28.315196 78.5946201,28.3632754 78.5639763,28.40743 C78.4199508,28.6738293 78.1308782,28.9142264 77.6972694,29.1354899 C77.2703,29.3538097 76.7304595,29.4632149 76.0951128,29.4632149 L75.9858168,29.4632149 Z" id="Fill-246" fill="#007067"></path>
            <polygon id="Shape" fill="#007067" fill-rule="nonzero" points="86.3552174 29.4095652 86.3552174 28.1695652 83.8347826 26.1073913 85.1152174 26.1073913 86.8404348 27.59 88.4982609 26.1073913 89.7652174 26.1073913 87.3256522 28.1695652 87.3256522 29.4095652"></polygon>
            <path d="M18.4113043,4.04347826 C18.5719068,5.00561384 18.6530503,5.97933539 18.653913,6.95478261 C18.6555639,7.49780659 18.2383321,7.95029745 17.6969565,7.9926087 C16.9286957,7.9926087 16.5513043,7.33217391 16.3491304,6.64478261 C15.4480765,4.60868956 13.4130857,3.31224635 11.1869565,3.35608696 C7.14347826,3.35608696 4.63652174,6.72565217 4.63652174,11.0926087 C4.63652174,13.3569565 5.36434783,19.2604348 11.3756522,19.2604348 C15.4191304,19.2604348 17.3330435,16.3356522 18.2495652,16.3356522 C18.7886957,16.3356522 19.0313043,16.5108696 19.0313043,17.0095652 C19.0313043,18.653913 15.4191304,21.5786957 10.3378261,21.5921739 C4.28608696,21.5652174 0,17.5217391 0,11.6317391 C0,5.74173913 4.66347826,1.42869565 10.85,1.41521739 C13.1908332,1.39015585 15.495292,1.99536725 17.5217391,3.1673913 C17.9311543,3.33676993 18.2660173,3.64771415 18.4652174,4.04347826" id="Shape" fill="#007067" fill-rule="nonzero"></path>
            <path d="M28.8704348,14.9473913 C28.2074292,13.1291652 27.3819167,11.3743872 26.403913,9.70434783 C25.4547397,11.3960616 24.6260184,13.1525903 23.923913,14.9608696 L28.8704348,14.9473913 Z M23.303913,16.5782609 C22.8366393,17.4795043 22.5526169,18.4644208 22.4682609,19.476087 C22.4682609,20.3521739 23.613913,20.1365217 23.613913,20.823913 C23.613913,21.5113043 22.8995652,21.2282609 22.1852174,21.2417391 L20.3656522,21.2417391 C19.7052174,21.2417391 19.1121739,21.443913 19.0986957,20.7834783 C19.0986957,20.513913 19.3278261,20.3521739 19.5704348,20.1769565 C19.8681453,20.0653145 20.1069252,19.8362808 20.2308696,19.5434783 C21.5891949,15.2775302 23.4391646,11.1840763 25.7434783,7.34565217 C26.0021554,6.81546811 26.5755609,6.51511286 27.1586957,6.60434783 C27.7550638,6.52375711 28.3326003,6.84827764 28.573913,7.39956522 C30.7496207,11.3106022 32.5979565,15.3949736 34.1,19.6108696 C34.2289968,19.9001552 34.4660276,20.1275113 34.7604348,20.2443478 C35.03,20.3926087 35.1782609,20.5273913 35.1782609,20.823913 C35.1782609,21.4034783 34.5852174,21.2821739 34.0595652,21.2686957 L30.8921739,21.2686957 C30.38,21.2686957 29.5443478,21.4843478 29.5443478,20.8643478 C29.5443478,20.2443478 30.5013043,20.3117391 30.4878261,19.8534783 C30.3297238,18.7143636 29.9883563,17.6083331 29.4769565,16.5782609 L23.303913,16.5782609 Z" id="Shape" fill="#007067" fill-rule="nonzero"></path>
            <path d="M40.8795652,13.6804348 C42.9552174,13.6804348 45.933913,12.9121739 45.933913,10.593913 C45.933913,8.86869565 44.586087,8.15434783 42.8473913,8.15434783 C41.1086957,8.15434783 40.8795652,8.77434783 40.8795652,9.86608696 L40.8795652,13.6804348 Z M40.8795652,18.963913 C40.8795652,19.583913 40.8795652,19.9073913 41.3513043,20.1230435 C41.8230435,20.3386957 42.0521739,20.4465217 42.0521739,20.8104348 C42.0521739,21.1743478 41.4591304,21.2686957 40.973913,21.2686957 L37.7391304,21.2686957 C37.253913,21.2686957 36.6608696,21.3495652 36.6608696,20.823913 C36.6608696,20.2982609 36.9034783,20.3386957 37.2134783,20.2173913 C37.7930435,20.0017391 37.8334783,19.6782609 37.82,18.9908696 L37.82,9.27304348 C37.82,8.50478261 37.82,8.22173913 37.2943478,8.11391304 C36.7686957,8.00608696 36.633913,7.79043478 36.633913,7.44 C36.633913,7.08956522 37.2,6.73913043 37.7391304,6.73913043 L43.7773913,6.73913043 C45.0233478,6.66811353 46.270717,6.85155019 47.4434783,7.27826087 C48.6024982,7.77879377 49.346829,8.92718982 49.3304348,10.1895652 C49.3304348,12.0495652 47.8747826,13.3030435 46.0956522,14.0308696 C47.4465134,15.5016639 48.4952181,17.2235546 49.1821739,19.0986957 C49.3503578,19.6349937 49.7369848,20.0754549 50.2469565,20.3117391 C50.53,20.46 50.7726087,20.5543478 50.7726087,20.9047826 C50.7726087,21.2552174 50.0447826,21.2552174 49.6269565,21.2552174 L46.19,21.2552174 C45.6643478,21.2552174 44.8421739,21.4978261 44.8421739,20.823913 C44.8421739,20.15 45.7856522,20.2847826 45.7856522,19.7321739 C45.2566398,17.9395 44.3359,16.2867719 43.09,14.8934783 C42.5913043,15.0147826 41.7421739,15.0956522 40.8930435,15.2034783 L40.8795652,18.963913 Z" id="Shape" fill="#007067" fill-rule="nonzero"></path>
            <path d="M61.433913,9.70434783 C61.433913,8.23521739 61.433913,8.04652174 60.7330435,7.8173913 C60.3017391,7.69608696 60.0995652,7.60173913 60.0995652,7.11652174 C60.0995652,6.63130435 60.5713043,6.65826087 61.1373913,6.65826087 L63.0378261,6.65826087 C63.6222296,6.54628507 64.2202572,6.76989536 64.5878261,7.23782609 C65.8682609,8.42391304 67.013913,9.77173913 71.5965217,15.8234783 L71.5965217,8.9226087 C71.5965217,8.18130435 71.5965217,8.00608696 70.8552174,7.70956522 C70.4643478,7.56130435 70.2891304,7.42652174 70.2891304,7.0626087 C70.2891304,6.45608696 70.7069565,6.65826087 71.5695652,6.65826087 L73.2813043,6.65826087 C74.0226087,6.65826087 74.7908696,6.45608696 74.7908696,7.04913043 C74.7908696,7.42652174 74.6156522,7.56130435 74.2382609,7.69608696 C73.4026087,8.01956522 73.4834783,8.10043478 73.4834783,8.90913043 L73.4834783,19.893913 C73.4834783,21.133913 73.3756522,21.3091304 72.8634783,21.3091304 C72.3513043,21.3091304 72.0682609,21.3091304 71.8526087,20.9856522 C70.8013043,19.6378261 66.7173913,14.2465217 63.3073913,10.3917391 L63.3073913,18.9234783 C63.3073913,19.6513043 63.3073913,19.84 64.0486957,20.1230435 C64.426087,20.2578261 64.6013043,20.406087 64.6013043,20.7834783 C64.6013043,21.3765217 64.1026087,21.1743478 63.3343478,21.1743478 L61.4204348,21.1743478 C60.6656522,21.1743478 60.0726087,21.3765217 60.14,20.7834783 C60.14,20.406087 60.3152174,20.2578261 60.6926087,20.1230435 C61.4608696,19.84 61.433913,19.6917391 61.433913,18.9234783 L61.433913,9.70434783 Z" id="Shape" fill="#007067" fill-rule="nonzero"></path>
            <path d="M87.7973913,13.5726087 C89.7113043,13.5726087 89.9134783,13.7882609 89.9134783,14.2465217 C89.7880512,15.0091131 89.7115182,15.7789448 89.6843478,16.5513043 C89.7138229,17.2966 89.8176718,18.0370876 89.9943478,18.7617391 C89.9943478,19.166087 89.4552174,19.8669565 87.6895652,20.716087 C86.4271374,21.3081012 85.0386832,21.5811639 83.646087,21.5113043 C78.686087,21.5113043 75.5591304,18.8156522 75.5591304,14.1521739 C75.5591304,9.48869565 78.8073913,6.40217391 83.9021739,6.40217391 C85.3093243,6.37328076 86.7007238,6.70257863 87.9456522,7.35913043 C88.325183,7.55363201 88.6531504,7.83540681 88.9026087,8.18130435 C89.0497118,8.75306537 89.1087962,9.34390992 89.0778261,9.93347826 C89.0778261,10.903913 88.7947826,11.0656522 88.3365217,11.0656522 C87.8782609,11.0656522 87.7165217,10.7421739 87.5952174,10.4052174 C87.269742,8.86724405 85.8613676,7.80377766 84.2930435,7.91173913 C80.5595652,7.91173913 78.9017391,11.2273913 78.9017391,14.1252174 C78.9017391,16.6591304 80.4247826,19.8669565 83.7269565,19.8669565 C84.6417744,19.8975092 85.5428313,19.6380425 86.3013043,19.1256522 C86.8152109,18.453704 87.0428907,17.60596 86.9347826,16.7669565 C86.9347826,15.4191304 86.8269565,15.1226087 85.303913,15.1226087 C84.1852174,15.1226087 83.5786957,15.1226087 83.5786957,14.3813043 C83.5786957,13.64 83.9695652,13.586087 84.9265217,13.586087 L87.7973913,13.5726087 Z" id="Shape" fill="#007067" fill-rule="nonzero"></path>
            <path d="M53.9130435,14.7586957 C53.9130435,12.8178261 54.0613043,10.0817391 53.0773913,10.176087 C52.4843478,10.176087 52.2147826,10.176087 52.08,9.8526087 C51.9452174,9.52913043 52.08,9.2326087 53.5491304,8.65304348 C54.3092819,8.2931732 55.1251301,8.06528263 55.9617391,7.97913043 C56.986087,7.97913043 57.04,8.84173913 57.04,9.73130435 L57.04,18.2630435 C57.04,19.3278261 57.04,19.7995652 57.4308696,20.0421739 C57.8217391,20.2847826 58.1586957,20.3386957 58.1586957,20.7295652 C58.1586957,21.4034783 57.4308696,21.2282609 56.8108696,21.2282609 L54.0613043,21.2282609 C53.4952174,21.2282609 52.7134783,21.4034783 52.7134783,20.7295652 C52.7134783,20.3521739 53.0234783,20.2173913 53.4278261,20.0556522 C53.8321739,19.893913 53.8186957,19.3413043 53.8186957,18.2630435 L53.9130435,14.7586957 Z" id="Shape" fill="#007067" fill-rule="nonzero"></path>
            <path d="M91.5308696,6.18652174 L92.0834783,6.18652174 C92.1772569,6.20117804 92.2727431,6.20117804 92.3665217,6.18652174 C92.4280017,6.16360375 92.4801442,6.12094171 92.5147826,6.06521739 C92.5302338,6.00783349 92.5302338,5.9473839 92.5147826,5.89 C92.5152116,5.79742703 92.475958,5.70910629 92.4069565,5.6473913 C92.3144221,5.57719197 92.1992424,5.54359788 92.0834783,5.55304348 L91.4634783,5.55304348 L91.5308696,6.18652174 Z M91.2747826,7.30521739 L91.2747826,5.31043478 L92.1508696,5.31043478 C92.2845862,5.2864615 92.4215008,5.2864615 92.5552174,5.31043478 C92.6454242,5.3486637 92.7210046,5.41479655 92.7708696,5.49913043 C92.824656,5.58862168 92.8526442,5.69124507 92.8517391,5.79565217 C92.8541791,5.92556183 92.8058205,6.05129421 92.7169565,6.14608696 C92.6040445,6.25400515 92.455244,6.31640537 92.2991304,6.32130435 L92.4608696,6.42913043 C92.5411958,6.51189375 92.6134096,6.60216105 92.6765217,6.69869565 L93.0134783,7.25130435 L92.69,7.25130435 L92.433913,6.83347826 L92.2452174,6.55043478 C92.210904,6.49601757 92.164852,6.44996555 92.1104348,6.41565217 L91.9891304,6.41565217 L91.5443478,6.41565217 L91.5443478,7.30521739 L91.2747826,7.30521739 Z" id="Shape" fill="#007067" fill-rule="nonzero"></path>
            <path d="M90.3043478,6.30782609 C90.3412155,5.37212009 91.1231363,4.63971704 92.0592519,4.6640571 C92.9953676,4.68839716 93.7381709,5.46044475 93.7263629,6.39680232 C93.7145548,7.3331599 92.9525187,8.08623049 92.016087,8.08695652 C91.5501843,8.08731774 91.1042638,7.89775303 90.7812409,7.56201267 C90.4582179,7.22627231 90.2860051,6.77336765 90.3043478,6.30782609 M90.0347826,6.30782609 C90.0422145,7.40028489 90.9325385,8.28057804 92.0250114,8.27563187 C93.1174843,8.2706857 93.9998009,7.38236691 93.9973404,6.2898856 C93.99488,5.1974043 93.108571,4.31306876 92.016087,4.31304348 C90.9196662,4.3204519 90.0347576,5.21138027 90.0347826,6.30782609" id="Shape" fill="#007067" fill-rule="nonzero"></path>
            <path d="M57.5252174,3.88173913 C57.4953062,5.24920486 56.3638953,6.33427874 54.9963743,6.30701326 C53.6288533,6.27974777 52.5415925,5.15043824 52.5662122,3.78286701 C52.590832,2.41529578 53.7180359,1.32585221 55.0856522,1.34782609 C56.45754,1.37730977 57.5477861,2.50972012 57.5252174,3.88173913" id="Shape" fill="#ED1C24" fill-rule="nonzero"></path>
            <path d="M117.826957,22.3334783 C121.870435,18.1282609 123.703478,14.6643478 123.218261,10.8095652 C122.733043,7.39956522 119.013043,5.60695652 115.670435,6.48304348 C113.788642,7.11737496 112.174682,8.36581997 111.087826,10.0278261 L110.953043,9.87956522 C109.877698,8.2840749 108.304163,7.08970473 106.478261,6.48304348 C103.135652,5.60695652 99.4156522,7.39956522 98.9304348,10.8095652 C98.3913043,14.6643478 100.278261,18.1282609 104.321739,22.3334783 C106.527119,24.7068107 108.896111,26.9226734 111.411304,28.9647826 C111.411304,28.9647826 113.608261,26.7678261 117.826957,22.3334783 Z" id="Shape" fill="#ED1C24" fill-rule="nonzero"></path>
            <path d="M119.956522,8.35652174 C120.167145,8.35101091 120.377072,8.38295638 120.576522,8.45086957 C121.843478,8.89565217 123.164348,11.3621739 121.466087,14.1386957 C121.466087,14.1386957 121.317826,14.3678261 121.183043,14.313913 C121.466617,13.0858799 121.434157,11.8059924 121.088696,10.593913 C120.842697,9.82718408 120.373377,9.1513638 119.74087,8.65304348 C119.592609,8.46434783 119.794783,8.37 119.956522,8.35652174 Z" id="Shape" fill="#FFFFFF" fill-rule="nonzero"></path>
            <path d="M109.982609,5.94391304 C109.357199,6.78831026 109.505547,7.97509657 110.319565,8.63956522 C110.960793,9.0276973 111.791396,8.87087029 112.246957,8.27565217 C112.732174,7.70956522 115.333478,3.98956522 119.107391,4.48826087 C121.533356,4.53530583 123.530417,6.41009817 123.730435,8.82826087 C123.973043,11.7126087 121.883913,15.4865217 119.686957,18.4921739 L112.947826,26.5791304 C112.145089,27.4546828 111.477319,28.4449805 110.966522,29.5173913 L120.104783,20.15 C123.474348,16.7130435 125.496087,13.9904348 126.318261,11.6452174 C126.692327,10.7021996 126.875575,9.6943358 126.857391,8.68 C126.944242,6.51510418 126.011291,4.4346732 124.336957,3.05956522 C122.18918,1.56929222 119.532129,1.00582242 116.964348,1.49608696 C114.098215,1.88519698 111.546558,3.51076999 109.982609,5.94391304 Z" id="Shape" fill="#007067" fill-rule="nonzero"></path>
            <path d="M101.90913,20.0556522 C99.343683,18.4857731 97.5505173,15.9157317 96.9626087,12.966087 C96.2992527,9.79983233 97.4778099,6.53011854 100.008696,4.51521739 C101.554412,3.34353592 103.462571,2.75200661 105.4,2.84391304 C106.626522,2.93826087 108.095652,3.28869565 107.974348,4.73086957 C107.974348,5.80913043 106.842174,5.83608696 106.262609,5.63391304 C104.802144,5.07529166 103.174527,5.1534955 101.774348,5.84956522 C99.6802057,6.84321775 98.3172073,8.92413125 98.2430435,11.2408696 C97.8117391,15.9582609 101.90913,20.0556522 101.90913,20.0556522 Z" id="Shape" fill="#007067" fill-rule="nonzero"></path>
        </g>
    </g>
</svg>