<?xml version="1.0" encoding="UTF-8"?>
<svg width="29px" height="26px" viewBox="0 0 29 26" version="1.1" xmlns="http://www.w3.org/2000/svg" xmlns:xlink="http://www.w3.org/1999/xlink">
    <!-- Generator: Sketch 46.2 (44496) - http://www.bohemiancoding.com/sketch -->
    <title>shopping-cart</title>
    <desc>Created with Sketch.</desc>
    <defs></defs>
    <g id="Page-3" stroke="none" stroke-width="1" fill="none" fill-rule="evenodd">
        <g id="Artboard" transform="translate(-356.000000, -81.000000)" fill-rule="nonzero" fill="#00645B">
            <g id="shopping-cart" transform="translate(356.000000, 81.000000)">
                <path d="M28.1940816,3.72477968 L5.35084038,3.72477968 C5.30636295,3.72477968 5.26630445,3.74153151 5.22422861,3.7507739 L4.29510189,0.658905428 C4.28463097,0.625498037 4.26234422,0.600755388 4.24755043,0.569851144 C4.22218966,0.251855143 3.96358656,0 3.64004451,0 C3.63946812,0 3.6382193,0 3.63754685,0 L0.614907063,0.0129008369 C0.273497185,0.0148263349 -0.0012445857,0.293253351 4.24052528e-06,0.634740428 C0.00125306675,0.975649856 0.277243663,1.25099607 0.617404715,1.25099607 C0.617981097,1.25099607 0.619229923,1.25099607 0.619902368,1.25099607 L3.18018826,1.23982819 L9.09040249,20.8979116 C8.50326203,21.4356069 8.1285181,22.20157 8.1285181,23.0610161 C8.1285181,24.6840184 9.44103446,26 11.0610503,26 C12.6804897,26 13.9935824,24.6839221 13.9935824,23.0610161 C13.9935824,22.6377916 13.9009772,22.2380582 13.740455,21.8749093 L22.272724,21.8749093 C22.1122018,22.2381545 22.0195965,22.6377916 22.0195965,23.0610161 C22.0195965,24.6840184 23.3321129,26 24.9521287,26 C26.5715681,26 27.8846608,24.6839221 27.8846608,23.0610161 C27.8846608,21.43811 26.571472,20.1220321 24.9521287,20.1220321 C24.3372258,20.1220321 23.7673768,20.3132341 23.2957048,20.637488 L12.7168978,20.637488 C12.2452257,20.3132341 11.6759531,20.1220321 11.0610503,20.1220321 C10.7554721,20.1220321 10.4665129,20.1820114 10.1892735,20.2686588 L9.30760219,17.3370881 L24.8620211,17.3246686 C25.1342652,17.3246686 25.3583814,17.1446345 25.4399394,16.898941 C25.4609773,16.8599496 25.4837444,16.8222099 25.4961366,16.7776346 L28.7886189,4.60944975 C28.8096568,4.53214101 28.8120584,4.45473598 28.8034127,4.37993039 C28.8039891,4.36693327 28.8108096,4.35643931 28.8108096,4.34401985 C28.811482,4.00195512 28.5349151,3.72477968 28.1940816,3.72477968 Z M24.9528011,21.3589721 C25.8893247,21.3589721 26.6506284,22.1218544 26.6506284,23.0605347 C26.6506284,23.9991187 25.8894208,24.7620973 24.9528011,24.7620973 C24.0161814,24.7620973 23.2549738,23.999215 23.2549738,23.0605347 C23.2550699,22.1218544 24.0162775,21.3589721 24.9528011,21.3589721 Z M11.0617227,21.3589721 C11.9983424,21.3589721 12.75955,22.1218544 12.75955,23.0605347 C12.75955,23.9991187 11.9983424,24.7620973 11.0617227,24.7620973 C10.125103,24.7620973 9.36389543,23.999215 9.36389543,23.0605347 C9.36389543,22.1218544 10.125103,21.3589721 11.0617227,21.3589721 Z M24.40399,16.0878249 L8.9367008,16.1002444 L5.58859768,4.96287492 L27.4143337,4.96287492 L24.40399,16.0878249 Z" id="Shape"></path>
            </g>
        </g>
    </g>
</svg>