<svg xmlns="http://www.w3.org/2000/svg" width="29" height="26" viewBox="0 0 29 26">
    <path fill="#959595" fill-rule="nonzero" d="M28.194 3.725H5.351c-.045 0-.085.017-.127.026L4.295.659C4.285.625 4.262.6 4.248.569A.612.612 0 0 0 3.64 0h-.002L.615.013A.619.619 0 0 0 .617 1.25H.62l2.56-.011 5.91 19.658a2.924 2.924 0 0 0-.961 2.163A2.936 2.936 0 0 0 11.06 26a2.936 2.936 0 0 0 2.68-4.125h8.532A2.936 2.936 0 0 0 24.953 26a2.936 2.936 0 0 0 2.932-2.939 2.936 2.936 0 0 0-2.933-2.939c-.615 0-1.185.191-1.656.515h-10.58a2.912 2.912 0 0 0-1.655-.515c-.306 0-.594.06-.872.147l-.881-2.932 15.554-.012a.61.61 0 0 0 .578-.426c.021-.04.044-.077.056-.121L28.79 4.609a.604.604 0 0 0 .014-.23c.001-.012.008-.023.008-.035a.617.617 0 0 0-.617-.62zm-3.241 17.634a1.701 1.701 0 0 1 0 3.403 1.701 1.701 0 0 1 0-3.403zm-13.891 0a1.701 1.701 0 0 1 0 3.403 1.701 1.701 0 0 1 0-3.403zm13.342-5.271L8.937 16.1 5.589 4.963h21.825l-3.01 11.125z"/>
</svg>
