<?xml version="1.0" encoding="UTF-8"?>
<svg width="25px" height="25px" viewBox="0 0 25 25" version="1.1" xmlns="http://www.w3.org/2000/svg" xmlns:xlink="http://www.w3.org/1999/xlink">
    <!-- Generator: Sketch 46.2 (44496) - http://www.bohemiancoding.com/sketch -->
    <title>chat (2)</title>
    <desc>Created with Sketch.</desc>
    <defs></defs>
    <g id="Page-3" stroke="none" stroke-width="1" fill="none" fill-rule="evenodd">
        <g id="2.0.0-home" transform="translate(-328.000000, -39.000000)" stroke="#FFFFFF">
            <g id="Group-2">
                <g id="message" transform="translate(329.000000, 32.000000)">
                    <g id="chat-(2)" transform="translate(0.000000, 8.000000)">
                        <path d="M16.1002683,0 L6.900115,0 C3.09546826,0 0,3.09459144 0,6.89816049 L0,12.2633964 C0,15.938583 2.88961483,18.9515463 6.51677528,19.1512097 L6.51677528,22.3488903 C6.51677528,22.7079779 6.80964683,23 7.16921949,23 C7.34133902,23 7.50387506,22.9321681 7.62731046,22.8087677 L8.34645577,22.089826 C10.2355539,20.201263 12.7468124,19.1615569 15.4175403,19.1615569 L16.099885,19.1615569 C19.9045317,19.1615569 23,16.0669655 23,12.2633964 L23,6.89816049 C23.0003833,3.09459144 19.9045317,0 16.1002683,0 Z" id="Shape" stroke-width="1.5" fill-rule="nonzero"></path>
                        <path d="M4.5,8.5 L10.5,8.5" id="Line" stroke-linecap="square"></path>
                        <path d="M4.5,12.5 L17.5,12.5" id="Line" stroke-linecap="square"></path>
                    </g>
                </g>
            </g>
        </g>
    </g>
</svg>