<svg xmlns="http://www.w3.org/2000/svg" width="16" height="20" viewBox="0 0 16 20">
    <g fill="#434343" fill-rule="nonzero">
        <path d="M12.167 7.333H3.833a.333.333 0 1 0 0 .667h8.334a.333.333 0 1 0 0-.667zM3.833 5.333h3.334a.333.333 0 1 0 0-.666H3.833a.333.333 0 1 0 0 .666zM12.167 10H3.833a.333.333 0 1 0 0 .667h8.334a.333.333 0 1 0 0-.667zM12.167 12.667H3.833a.333.333 0 1 0 0 .666h8.334a.333.333 0 1 0 0-.666zM12.167 15.333H3.833a.333.333 0 1 0 0 .667h8.334a.333.333 0 1 0 0-.667z"/>
        <path d="M10.971 0H.167v20h15.666V4.862L10.971 0zm.196 1.138l3.528 3.529h-3.528V1.138zM.833 19.333V.667H10.5v4.666h4.667v14H.833z"/>
    </g>
</svg>
