<?xml version="1.0" encoding="UTF-8"?>
<svg width="24px" height="26px" viewBox="0 0 24 26" version="1.1" xmlns="http://www.w3.org/2000/svg" xmlns:xlink="http://www.w3.org/1999/xlink">
    <!-- Generator: Sketch 46.2 (44496) - http://www.bohemiancoding.com/sketch -->
    <title>gift</title>
    <desc>Created with Sketch.</desc>
    <defs></defs>
    <g id="Page-3" stroke="none" stroke-width="1" fill="none" fill-rule="evenodd">
        <g id="Artboard" transform="translate(-165.000000, -81.000000)" fill-rule="nonzero" fill="#00645B">
            <g id="gift" transform="translate(165.000000, 81.000000)">
                <path d="M22.2534722,6.5 L17.6417571,6.5 C18.0309884,6.35786328 18.3669381,6.20922656 18.6178521,6.06495703 C20.1830096,5.1675 20.7193019,3.17982031 19.8156125,1.62545703 C19.2095224,0.582816406 18.10953,0 16.9785505,0 C16.4235432,0 15.8606612,0.140410156 15.3453338,0.435957031 C14.3679093,0.996683594 12.6862689,2.61604687 11.7813011,4.13227344 C10.8763334,2.61645312 9.19464179,0.996683594 8.21726847,0.435957031 C7.70188992,0.140410156 7.13941705,0 6.58394952,0 C5.45296997,0 4.35292643,0.582816406 3.74683634,1.62545703 C2.84314697,3.17982031 3.37943929,5.1675 4.94459676,6.06495703 C5.1955108,6.20882031 5.5314605,6.35745703 5.92069173,6.5 L1.30902778,6.5 C0.585994466,6.5 0,7.08195312 0,7.8 L0,11.7 C0,12.4180469 0.585994466,13 1.30902778,13 L1.30902778,24.7 C1.30902778,25.4180469 1.89502224,26 2.61805556,26 L9.16319444,26 L14.3993056,26 L20.9444444,26 C21.6674778,26 22.2534722,25.4180469 22.2534722,24.7 L22.2534722,13 C22.9765055,13 23.5625,12.4180469 23.5625,11.7 L23.5625,7.8 C23.5625,7.08195312 22.9765055,6.5 22.2534722,6.5 Z M15.9997965,1.56172656 C16.2986742,1.39054297 16.6368738,1.3 16.9784993,1.3 C17.6796985,1.3 18.3324738,1.67395312 18.681974,2.27545703 C19.223482,3.20668359 18.9010316,4.40141406 17.9633382,4.93913672 C17.2211297,5.36468359 15.1236172,5.98304687 13.5261943,5.98304687 C12.9279788,5.98304687 12.6007218,5.89336719 12.466751,5.83268359 C12.4824491,4.94736328 14.6004663,2.36427344 15.9997965,1.56172656 Z M7.85416667,24.7 L2.61805556,24.7 L2.61805556,13 L7.85416667,13 L7.85416667,24.7 Z M7.85416667,11.7 L2.61805556,11.7 L1.30902778,11.7 L1.30902778,7.8 L7.85416667,7.8 L7.85416667,11.7 Z M5.59916178,4.93913672 C4.66146837,4.40136328 4.33901801,3.20668359 4.88052599,2.27545703 C5.23002618,1.67400391 5.88326172,1.3 6.58446086,1.3 C6.92613756,1.3 7.26428602,1.39059375 7.56275458,1.56172656 C8.96208483,2.36427344 11.080102,4.94736328 11.095391,5.83263281 C10.9614202,5.89331641 10.6341633,5.98299609 10.0359478,5.98299609 C8.43888279,5.98304687 6.34137031,5.36468359 5.59916178,4.93913672 Z M14.3993056,24.7 L9.16319444,24.7 L9.16319444,7.8 L14.3993056,7.8 L14.3993056,24.7 L14.3993056,24.7 Z M20.9444444,24.7 L15.7083333,24.7 L15.7083333,13 L20.9444444,13 L20.9444444,24.7 L20.9444444,24.7 Z M22.2534722,11.7 L20.9444444,11.7 L15.7083333,11.7 L15.7083333,7.8 L22.2534722,7.8 L22.2534722,11.7 Z" id="Shape"></path>
            </g>
        </g>
    </g>
</svg>