<svg xmlns="http://www.w3.org/2000/svg" width="24" height="26" viewBox="0 0 24 26">
    <path fill="#959595" fill-rule="nonzero" d="M22.253 6.5h-4.611c.389-.142.725-.29.976-.435a3.238 3.238 0 0 0 1.198-4.44A3.275 3.275 0 0 0 16.979 0c-.555 0-1.118.14-1.634.436-.977.56-2.659 2.18-3.564 3.696C10.876 2.616 9.195.997 8.217.436A3.274 3.274 0 0 0 6.584 0a3.275 3.275 0 0 0-2.837 1.625 3.238 3.238 0 0 0 1.198 4.44c.25.144.586.292.976.435H1.309C.586 6.5 0 7.082 0 7.8v3.9c0 .718.586 1.3 1.309 1.3v11.7c0 .718.586 1.3 1.31 1.3h18.325c.723 0 1.31-.582 1.31-1.3V13c.723 0 1.308-.582 1.308-1.3V7.8c0-.718-.585-1.3-1.309-1.3zM16 1.562a1.972 1.972 0 0 1 2.682.713c.541.932.219 2.126-.719 2.664-.742.426-2.84 1.044-4.437 1.044-.598 0-.925-.09-1.06-.15.016-.886 2.134-3.469 3.534-4.271zM7.854 24.7H2.618V13h5.236v11.7zm0-13H1.31V7.8h6.545v3.9zM5.6 4.94a1.945 1.945 0 0 1-.718-2.665 1.975 1.975 0 0 1 2.682-.713c1.4.802 3.517 3.385 3.532 4.27-.134.061-.46.151-1.06.151-1.596 0-3.694-.618-4.436-1.044zm8.8 19.76H9.163V7.8H14.4v16.9zm6.545 0h-5.236V13h5.236v11.7zm1.31-13H15.707V7.8h6.545v3.9z"/>
</svg>
