<?xml version="1.0" encoding="UTF-8"?>
<svg width="54px" height="40px" viewBox="0 0 54 40" version="1.1" xmlns="http://www.w3.org/2000/svg" xmlns:xlink="http://www.w3.org/1999/xlink">
    <!-- Generator: Sketch 46.2 (44496) - http://www.bohemiancoding.com/sketch -->
    <title>heartbeat</title>
    <desc>Created with Sketch.</desc>
    <defs></defs>
    <g id="Page-3" stroke="none" stroke-width="1" fill="none" fill-rule="evenodd">
        <g id="2.0.0-home" transform="translate(-73.000000, -487.000000)" fill-rule="nonzero" fill="#525252">
            <g id="Group-7" transform="translate(26.000000, 475.000000)">
                <g id="heartbeat" transform="translate(47.000000, 12.000000)">
                    <path d="M45.8579922,3.71111086 C43.4676964,1.31786481 40.288932,0 36.9083835,0 C33.5273906,0 30.3490706,1.31786481 27.9587748,3.71111086 L26.953855,4.71708397 L25.9489352,3.71111086 C23.558195,1.31786481 20.3794305,0 16.998882,0 C13.6178891,0 10.4395691,1.31786481 8.04927331,3.71111086 C3.11401035,8.65065682 3.11401035,16.6886533 8.04927331,21.6286442 L26.0107149,39.6089118 C26.2711673,39.8696373 26.6120667,40 26.9534105,40 C27.2947544,40 27.6356537,39.8696373 27.8969951,39.6093568 L45.8579922,21.6290891 C48.2487324,19.236288 49.5652174,16.0541917 49.5652174,12.6701 C49.5652174,9.28556333 48.2487324,6.10391199 45.8579922,3.71111086 Z M43.9721564,19.7412767 L26.953855,36.7778606 L9.93510911,19.7412767 C6.03987815,15.841963 6.03987815,9.49779206 9.93510911,5.59847836 C11.8218338,3.70977609 14.3303555,2.66954384 16.998882,2.66954384 C19.6669641,2.66954384 22.1759302,3.70977609 24.0630994,5.59847836 L26.0107149,7.54813521 C26.5316198,8.06958611 27.3752013,8.06958611 27.8961062,7.54813521 L29.8437217,5.59847836 C31.7308909,3.70977609 34.2394125,2.66954384 36.907939,2.66954384 C39.5764656,2.66954384 42.0854317,3.70977609 43.9721564,5.59847836 C47.8673874,9.49779206 47.8673874,15.841963 43.9721564,19.7412767 Z" id="Shape"></path>
                    <path d="M6.44501279,16.5217391 L1.38107417,16.5217391 C0.61826087,16.5217391 0,17.1056522 0,17.826087 C0,18.5465217 0.61826087,19.1304348 1.38107417,19.1304348 L6.44501279,19.1304348 C7.20782609,19.1304348 7.82608696,18.5465217 7.82608696,17.826087 C7.82608696,17.1056522 7.20782609,16.5217391 6.44501279,16.5217391 Z" id="Shape"></path>
                    <path d="M48.6687492,16.5218536 L35.7990513,16.5218536 L33.7963412,12.2492918 C33.6452863,11.9262519 33.3162825,11.7297323 32.942007,11.740167 C32.5766962,11.7553842 32.2575535,11.9836425 32.1356339,12.3179867 L28.0423599,23.5065596 L23.0660648,10.139315 C22.9432486,9.80931858 22.6272436,9.58279932 22.2650704,9.56627776 C21.8777961,9.54888665 21.5662734,9.74671057 21.4120809,10.0645332 L18.0682544,16.9566315 L6.98342475,16.9566315 C6.48812605,16.9566315 6.08695652,17.3461924 6.08695652,17.8261871 C6.08695652,18.3061819 6.67683262,18.6535694 7.17213131,18.6535694 L18.8262183,18.6535694 C19.1735997,18.6535694 19.3008982,18.5013971 19.4488155,18.1966179 L22.1144638,12.7023303 L27.207748,26.382615 C27.335943,26.726959 27.673015,26.9565217 28.0508764,26.9565217 C28.0517728,26.9565217 28.0526693,26.9565217 28.0526693,26.9565217 C28.4314271,26.9556522 28.7684992,26.7239156 28.8949012,26.3778324 L33.0832008,14.9288276 L34.4059396,17.7509706 C34.5511675,18.0618367 35.059465,18.2187915 35.4108805,18.2187915 L48.857904,18.2187915 C49.3527544,18.2187915 49.5652174,17.871404 49.5652174,17.3914093 C49.5652174,16.9114146 49.1635996,16.5218536 48.6687492,16.5218536 Z" id="Shape"></path>
                    <path d="M52.5217391,16.5217391 L48.3478261,16.5217391 C47.5793623,16.5217391 46.9565217,17.1056522 46.9565217,17.826087 C46.9565217,18.5465217 47.5793623,19.1304348 48.3478261,19.1304348 L52.5217391,19.1304348 C53.2902029,19.1304348 53.9130435,18.5465217 53.9130435,17.826087 C53.9130435,17.1056522 53.2902029,16.5217391 52.5217391,16.5217391 Z" id="Shape"></path>
                </g>
            </g>
        </g>
    </g>
</svg>