<?xml version="1.0" encoding="UTF-8"?>
<svg width="46px" height="40px" viewBox="0 0 46 40" version="1.1" xmlns="http://www.w3.org/2000/svg" xmlns:xlink="http://www.w3.org/1999/xlink">
    <!-- Generator: Sketch 46.2 (44496) - http://www.bohemiancoding.com/sketch -->
    <title>newspaper-folded</title>
    <desc>Created with Sketch.</desc>
    <defs></defs>
    <g id="Page-3" stroke="none" stroke-width="1" fill="none" fill-rule="evenodd">
        <g id="2.0.0-home" transform="translate(-251.000000, -487.000000)" fill-rule="nonzero">
            <g id="Group-8" transform="translate(201.000000, 475.000000)">
                <g id="newspaper-folded" transform="translate(50.000000, 12.000000)">
                    <path d="M17.254761,32.173913 L7.09306504,32.173913 C6.5373913,32.173913 6.08695652,32.5632174 6.08695652,33.0434783 C6.08695652,33.5237391 6.5373913,33.9130435 7.09306504,33.9130435 L17.254761,33.9130435 C17.8104348,33.9130435 18.2608696,33.5237391 18.2608696,33.0434783 C18.2608696,32.5632174 17.8104348,32.173913 17.254761,32.173913 Z" id="Shape" fill="#525252"></path>
                    <path d="M32.906935,32.173913 L22.745239,32.173913 C22.1895652,32.173913 21.7391304,32.5632174 21.7391304,33.0434783 C21.7391304,33.5237391 22.1895652,33.9130435 22.745239,33.9130435 L32.906935,33.9130435 C33.4625081,33.9130435 33.9130435,33.5237391 33.9130435,33.0434783 C33.9130435,32.5632174 33.4625081,32.173913 32.906935,32.173913 Z" id="Shape" fill="#525252"></path>
                    <path d="M32.8900256,6.08695652 L7.10997442,6.08695652 C6.54496164,6.08695652 6.08695652,6.47626087 6.08695652,6.95652174 C6.08695652,7.43678261 6.54496164,7.82608696 7.10997442,7.82608696 L32.8900256,7.82608696 C33.4549361,7.82608696 33.9130435,7.43678261 33.9130435,6.95652174 C33.9130435,6.47626087 33.4549361,6.08695652 32.8900256,6.08695652 Z" id="Shape" fill="#525252"></path>
                    <path d="M32.906935,11.3043478 L22.745239,11.3043478 C22.1895652,11.3043478 21.7391304,11.6936522 21.7391304,12.173913 C21.7391304,12.6541739 22.1895652,13.0434783 22.745239,13.0434783 L32.906935,13.0434783 C33.4625081,13.0434783 33.9130435,12.6541739 33.9130435,12.173913 C33.9130435,11.6936522 33.4625081,11.3043478 32.906935,11.3043478 Z" id="Shape" fill="#525252"></path>
                    <path d="M32.906935,16.5217391 L22.745239,16.5217391 C22.1895652,16.5217391 21.7391304,16.9110435 21.7391304,17.3913043 C21.7391304,17.8715652 22.1895652,18.2608696 22.745239,18.2608696 L32.906935,18.2608696 C33.4625081,18.2608696 33.9130435,17.8715652 33.9130435,17.3913043 C33.9130435,16.9110435 33.4625081,16.5217391 32.906935,16.5217391 Z" id="Shape" fill="#525252"></path>
                    <path d="M32.906935,21.7391304 L22.745239,21.7391304 C22.1895652,21.7391304 21.7391304,22.1284348 21.7391304,22.6086957 C21.7391304,23.0889565 22.1895652,23.4782609 22.745239,23.4782609 L32.906935,23.4782609 C33.4625081,23.4782609 33.9130435,23.0889565 33.9130435,22.6086957 C33.9130435,22.1284348 33.4625081,21.7391304 32.906935,21.7391304 Z" id="Shape" fill="#525252"></path>
                    <path d="M32.906935,26.9565217 L22.745239,26.9565217 C22.1895652,26.9565217 21.7391304,27.3458261 21.7391304,27.826087 C21.7391304,28.3063478 22.1895652,28.6956522 22.745239,28.6956522 L32.906935,28.6956522 C33.4625081,28.6956522 33.9130435,28.3063478 33.9130435,27.826087 C33.9130435,27.3458261 33.4625081,26.9565217 32.906935,26.9565217 Z" id="Shape" fill="#525252"></path>
                    <path d="M17.254761,26.9565217 L7.09306504,26.9565217 C6.5373913,26.9565217 6.08695652,27.3458261 6.08695652,27.826087 C6.08695652,28.3063478 6.5373913,28.6956522 7.09306504,28.6956522 L17.254761,28.6956522 C17.8104348,28.6956522 18.2608696,28.3063478 18.2608696,27.826087 C18.2608696,27.3458261 17.8104348,26.9565217 17.254761,26.9565217 Z" id="Shape" fill="#525252"></path>
                    <g id="plus-symbol-(2)" transform="translate(8.000000, 12.000000)" stroke="#525252">
                        <path d="M0.353517676,5.35587075 C0.156553282,5.35587075 0,5.1943137 0,4.99745579 C0,4.80059789 0.156553282,4.64412925 0.353517676,4.64412925 L4.64123206,4.64412925 L4.64123206,0.35841496 C4.64155026,0.161557054 4.80319471,0 5.0001591,0 C5.19712349,0 5.35367677,0.161557054 5.35367677,0.35841496 L5.35367677,4.64412925 L9.64139116,4.64412925 C9.83835555,4.64412925 10,4.80059789 10,4.99745579 C10,5.1943137 9.83835555,5.35587075 9.64139116,5.35587075 L5.35367677,5.35587075 L5.35367677,9.64158504 C5.35367677,9.83844295 5.19712349,10 5.0001591,10 C4.80319471,10 4.64155026,9.83844295 4.64155026,9.64158504 L4.64155026,5.35587075 L0.353517676,5.35587075 Z" id="Shape"></path>
                    </g>
                    <path d="M43.1713555,5.12820513 L40.1023018,5.12820513 L40.1023018,2.05128205 C40.1023018,0.920205128 39.1844501,0 38.056266,0 L2.04603581,0 C0.917851662,0 0,0.920205128 0,2.05128205 L0,34.8717949 C0,37.6994872 2.29462916,40 5.11508951,40 L40.1023018,40 C42.9227621,40 45.2173913,37.6994872 45.2173913,34.8717949 L45.2173913,7.17948718 C45.2173913,6.04841026 44.2995396,5.12820513 43.1713555,5.12820513 Z M43.1713555,34.8717949 C43.1713555,36.5684103 41.794578,37.9487179 40.1023018,37.9487179 L5.11508951,37.9487179 C3.4228133,37.9487179 2.04603581,36.5684103 2.04603581,34.8717949 L2.04603581,2.05128205 L38.056266,2.05128205 L38.056266,33.3333333 C38.056266,34.7471795 39.2035806,35.8974359 40.6138107,35.8974359 C41.1787212,35.8974359 41.6368286,35.4382564 41.6368286,34.8717949 C41.6368286,34.3053333 41.1787212,33.8461538 40.6138107,33.8461538 C40.3317647,33.8461538 40.1023018,33.6161026 40.1023018,33.3333333 L40.1023018,7.17948718 L43.1713555,7.17948718 L43.1713555,34.8717949 Z" id="Shape" fill="#525252"></path>
                </g>
            </g>
        </g>
    </g>
</svg>