<?xml version="1.0" encoding="UTF-8"?>
<svg width="29px" height="26px" viewBox="0 0 29 26" version="1.1" xmlns="http://www.w3.org/2000/svg" xmlns:xlink="http://www.w3.org/1999/xlink">
    <!-- Generator: Sketch 46.2 (44496) - http://www.bohemiancoding.com/sketch -->
    <title>id-card</title>
    <desc>Created with Sketch.</desc>
    <defs></defs>
    <g id="Page-3" stroke="none" stroke-width="1" fill="none" fill-rule="evenodd">
        <g id="Artboard" transform="translate(-258.000000, -81.000000)" fill-rule="nonzero" fill="#00645B">
            <g id="id-card" transform="translate(258.000000, 81.000000)">
                <path d="M12.2662188,16.1467964 C12.9167856,15.5804455 13.3310678,14.7367722 13.3310678,13.7926003 C13.3310678,12.0878114 11.9845365,10.7062335 10.3234153,10.7058824 C8.66160981,10.7062921 7.3157629,12.0878114 7.31502148,13.7926003 C7.31502148,14.7367722 7.72941777,15.5804455 8.37987052,16.1467964 C6.60046449,16.923334 5.35294118,18.7327773 5.35294118,20.8427213 C5.35294118,20.992562 5.41202658,21.1389493 5.51519791,21.2452425 C5.61836924,21.3514187 5.76134908,21.4117647 5.90740866,21.4117647 L14.7396502,21.4117647 C14.8856527,21.4117647 15.0282904,21.3511261 15.1318609,21.2452425 C15.2353174,21.139359 15.2941176,20.9926205 15.2941176,20.8427213 C15.2934333,18.7327773 14.0459099,16.9232755 12.2662188,16.1467964 Z M8.98059115,12.4147685 C9.32580733,12.0608869 9.7971218,11.8442618 10.3234153,11.8438521 C10.8497659,11.8442618 11.3202819,12.0608284 11.6662395,12.4147685 C12.0107713,12.7694109 12.2221328,13.2527642 12.2221328,13.7925418 C12.2221328,14.3327292 12.0107143,14.8160239 11.6662395,15.1706663 C11.3202819,15.5242552 10.8497089,15.741173 10.3234153,15.7415827 C9.79706476,15.7408218 9.32580733,15.5238455 8.98059115,15.1706663 C8.63537498,14.8160239 8.42469786,14.3326706 8.42395644,13.7925418 C8.42469786,13.2527642 8.63537498,12.7694694 8.98059115,12.4147685 Z M6.50596206,20.2736779 C6.62715558,19.4072359 7.0171991,18.6322201 7.59299664,18.0401153 C8.29340964,17.3219922 9.25480218,16.879728 10.3234153,16.8793183 C11.3912871,16.879728 12.3534211,17.3220507 13.0538341,18.0401153 C13.6300878,18.6322787 14.0189337,19.4072359 14.1401272,20.2736779 L6.50596206,20.2736779 L6.50596206,20.2736779 Z" id="Shape"></path>
                <path d="M22.3949339,15.2941176 L15.8403602,15.2941176 C15.5388649,15.2941176 15.2941176,15.5510319 15.2941176,15.8676471 C15.2941176,16.1842622 15.5388087,16.4411765 15.8403602,16.4411765 L22.3949339,16.4411765 C22.6964292,16.4411765 22.9411765,16.1842622 22.9411765,15.8676471 C22.9411765,15.5510319 22.6964292,15.2941176 22.3949339,15.2941176 Z" id="Shape"></path>
                <path d="M22.3949339,11.572549 L15.8403602,11.572549 C15.5388649,11.572549 15.2941176,11.8294633 15.2941176,12.1460784 C15.2941176,12.4626936 15.5388087,12.7196078 15.8403602,12.7196078 L22.3949339,12.7196078 C22.6964292,12.7196078 22.9411765,12.4626936 22.9411765,12.1460784 C22.9411765,11.8294633 22.6964292,11.572549 22.3949339,11.572549 Z" id="Shape"></path>
                <path d="M22.3119365,18.3529412 L15.9233576,18.3529412 C15.5760524,18.3529412 15.2941176,18.6098555 15.2941176,18.9264706 C15.2941176,19.2430857 15.5759877,19.5 15.9233576,19.5 L22.3119365,19.5 C22.6592417,19.5 22.9411765,19.2430857 22.9411765,18.9264706 C22.9411765,18.6098555 22.6596948,18.3529412 22.3119365,18.3529412 Z" id="Shape"></path>
                <path d="M26.8615069,4.89858696 L17.0974943,4.89858696 L16.7897957,1.50049531 C16.714971,0.675246148 16.0090549,0 15.2214616,0 L13.0725455,0 C12.2842338,0 11.5783177,0.675246148 11.5042114,1.50049531 L11.1965129,4.89858696 L1.43261075,4.89858696 C0.64435432,4.89858696 0,5.57685642 0,6.40588473 L0,24.4927604 C0,25.3217305 0.64435432,26 1.43261075,26 L26.8615069,26 C27.6491002,26 28.2941176,25.3217887 28.2941176,24.4927604 L28.2941176,6.40588473 C28.2941176,5.57685642 27.6491002,4.89858696 26.8615069,4.89858696 Z M12.1288372,6.51920097 L12.5736406,1.60753235 C12.5962428,1.36223672 12.8383454,1.13048787 13.0725455,1.13048787 L15.2214616,1.13048787 C15.455717,1.13048787 15.6978196,1.36223672 15.7203665,1.6078812 L16.1651699,6.51925911 C16.1722987,6.59873745 16.1547807,6.66542484 16.1146605,6.71216997 C16.0742088,6.75856625 16.0133101,6.7826365 15.937767,6.7826365 L12.3562954,6.7826365 C12.2807523,6.7826365 12.2191352,6.75850811 12.1794019,6.71182112 C12.1396133,6.665076 12.1220952,6.59833047 12.1288372,6.51920097 Z M27.2197701,24.4927604 L27.2197148,24.4927604 C27.2197148,24.6969505 27.0553658,24.8695703 26.8615622,24.8695703 L1.43261075,24.8695703 C1.23814396,24.8695703 1.07445807,24.6969505 1.07445807,24.4927604 L1.07445807,6.40588473 C1.07445807,6.20169458 1.23808869,6.02907482 1.43261075,6.02907482 L11.0938362,6.02907482 L11.0594632,6.41262906 C10.9846386,7.23787822 11.5680389,7.91312437 12.3563506,7.91312437 L15.9378775,7.91312437 C16.7254708,7.91312437 17.3089265,7.23787822 17.2347649,6.41262906 L17.1996736,6.02907482 L26.8616174,6.02907482 C27.0553658,6.02907482 27.2197701,6.20169458 27.2197701,6.40588473 L27.2197701,24.4927604 Z" id="Shape"></path>
            </g>
        </g>
    </g>
</svg>