<svg xmlns="http://www.w3.org/2000/svg" width="29" height="26" viewBox="0 0 29 26">
    <g fill="#959595" fill-rule="nonzero">
        <path d="M12.266 16.147a3.112 3.112 0 0 0 1.065-2.354c0-1.705-1.346-3.087-3.008-3.087-1.661 0-3.007 1.382-3.008 3.087 0 .944.414 1.787 1.065 2.354-1.78.776-3.027 2.586-3.027 4.696 0 .15.059.296.162.402a.55.55 0 0 0 .392.167h8.833c.146 0 .288-.06.392-.167a.58.58 0 0 0 .162-.402c0-2.11-1.248-3.92-3.028-4.696zm-3.285-3.732a1.865 1.865 0 0 1 2.685 0c.345.354.556.838.556 1.378 0 .54-.211 1.023-.556 1.378a1.868 1.868 0 0 1-2.685 0 1.966 1.966 0 0 1-.557-1.378c0-.54.211-1.024.557-1.378zm-2.475 7.859a3.988 3.988 0 0 1 1.087-2.234 3.797 3.797 0 0 1 2.73-1.16c1.068 0 2.03.442 2.73 1.16a3.984 3.984 0 0 1 1.087 2.234H6.506zM22.395 15.294H15.84a.56.56 0 0 0-.546.574.56.56 0 0 0 .546.573h6.555a.56.56 0 0 0 .546-.573.56.56 0 0 0-.546-.574zM22.395 11.573H15.84a.56.56 0 0 0-.546.573.56.56 0 0 0 .546.574h6.555a.56.56 0 0 0 .546-.574.56.56 0 0 0-.546-.573zM22.312 18.353h-6.389c-.347 0-.629.257-.629.573 0 .317.282.574.63.574h6.388c.347 0 .63-.257.63-.574 0-.316-.282-.573-.63-.573z"/>
        <path d="M26.862 4.899h-9.765L16.79 1.5C16.715.675 16.01 0 15.22 0h-2.148c-.789 0-1.495.675-1.569 1.5L11.197 4.9H1.433C.644 4.899 0 5.577 0 6.406v18.087C0 25.322.644 26 1.433 26h25.429c.787 0 1.432-.678 1.432-1.507V6.406c0-.83-.645-1.507-1.432-1.507zm-14.733 1.62l.445-4.911c.022-.246.264-.478.499-.478h2.148c.235 0 .477.232.5.478l.444 4.911a.254.254 0 0 1-.05.193.225.225 0 0 1-.177.07h-3.582c-.075 0-.137-.023-.177-.07a.257.257 0 0 1-.05-.193zm15.09 17.974c0 .204-.164.377-.357.377H1.432c-.194 0-.358-.173-.358-.377V6.406c0-.204.164-.377.359-.377h9.66l-.034.384c-.074.825.509 1.5 1.297 1.5h3.582c.787 0 1.37-.675 1.297-1.5l-.035-.384h9.662c.193 0 .358.173.358.377v18.087z"/>
    </g>
</svg>
