<svg xmlns="http://www.w3.org/2000/svg" width="16" height="16" viewBox="0 0 16 16">
    <path fill="#434343" fill-rule="nonzero" d="M11.31 0a4.695 4.695 0 0 0-4.69 4.69c0 .881.25 1.703.674 2.408L.162 14.231a.552.552 0 1 0 .78.78l.989-.99 1.817 1.817a.55.55 0 0 0 .78 0 .552.552 0 0 0 0-.78l-1.817-1.817.6-.599 1.264 1.265a.55.55 0 0 0 .78 0 .552.552 0 0 0 0-.78L4.09 11.862l.6-.6 1.816 1.818a.55.55 0 0 0 .78 0 .552.552 0 0 0 0-.78L5.47 10.483l2.503-2.504a4.674 4.674 0 0 0 3.337 1.4A4.695 4.695 0 0 0 16 4.69 4.695 4.695 0 0 0 11.31 0zm0 8.276A3.59 3.59 0 0 1 7.724 4.69a3.59 3.59 0 0 1 3.586-3.587 3.59 3.59 0 0 1 3.587 3.587 3.59 3.59 0 0 1-3.587 3.586z"/>
</svg>
