<?xml version="1.0" encoding="UTF-8"?>
<svg width="16px" height="16px" viewBox="0 0 16 16" version="1.1" xmlns="http://www.w3.org/2000/svg" xmlns:xlink="http://www.w3.org/1999/xlink">
    <!-- Generator: Sketch 47.1 (45422) - http://www.bohemiancoding.com/sketch -->
    <title>logout copy</title>
    <desc>Created with Sketch.</desc>
    <defs></defs>
    <g id="Page-3" stroke="none" stroke-width="1" fill="none" fill-rule="evenodd">
        <g id="logout-copy" transform="translate(8.000000, 8.000000) scale(-1, 1) translate(-8.000000, -8.000000) " fill-rule="nonzero" fill="#434343">
            <path d="M7.05883575,15.0000234 L0.941191139,15.0000234 L0.941191139,0.999976621 L7.05883575,0.999976621 C7.31861092,0.999976621 7.52941176,0.775958584 7.52941176,0.499988311 C7.52941176,0.224018038 7.31857181,0 7.05883575,0 L0.470576011,0 C0.210839958,-5.07931886e-17 0,0.223976476 0,0.499988311 L0,15.5000117 C0,15.7760235 0.210839958,16 0.470576011,16 L7.05879664,16 C7.31857181,16 7.52937265,15.775982 7.52937265,15.5000117 C7.52941176,15.2239999 7.31857181,15.0000234 7.05883575,15.0000234 Z" id="Shape"></path>
            <path d="M15.8579829,7.62231405 L12.480652,3.92116942 C12.2892635,3.71228771 11.9794372,3.71281519 11.7885369,3.92116942 C11.5971485,4.12952364 11.5971485,4.4679454 11.7885369,4.67629963 L14.3337919,7.46578464 L4.25416234,7.46578464 C3.98396447,7.46578464 3.76470588,7.70482056 3.76470588,7.99990113 C3.76470588,8.2949817 3.98400516,8.53401762 4.25416234,8.53401762 L14.3337919,8.53401762 L11.7885369,11.3235026 C11.5971485,11.5323843 11.5971485,11.8702786 11.7885369,12.0786328 C11.9799254,12.2875145 12.2897517,12.2875145 12.480652,12.0786328 L15.8574947,8.37748821 C16.046442,8.17177138 16.0483949,7.82750339 15.8579829,7.62231405 Z" id="Shape"></path>
        </g>
    </g>
</svg>