<svg xmlns="http://www.w3.org/2000/svg" width="16" height="16" viewBox="0 0 16 16">
    <g fill="#434343" fill-rule="nonzero">
        <path d="M7.059 15H.94V1H7.06c.26 0 .47-.224.47-.5S7.32 0 7.06 0H.47C.21 0 0 .224 0 .5v15c0 .276.21.5.47.5H7.06c.26 0 .47-.224.47-.5s-.21-.5-.47-.5z"/>
        <path d="M15.858 7.622l-3.377-3.7a.46.46 0 0 0-.692 0 .568.568 0 0 0 0 .754l2.545 2.79H4.254c-.27 0-.49.239-.49.534 0 .295.22.534.49.534h10.08l-2.545 2.79a.568.568 0 0 0 0 .755.46.46 0 0 0 .692 0l3.376-3.702a.572.572 0 0 0 .001-.755z"/>
    </g>
</svg>
