<svg xmlns="http://www.w3.org/2000/svg" width="40" height="40" viewBox="0 0 40 40">
    <g fill="#525252" fill-rule="nonzero">
        <path d="M31.905 0c-4.64 0-7.143 9.077-7.143 17.619s2.503 17.62 7.143 17.62 7.143-9.078 7.143-17.62C39.048 9.077 36.544 0 31.905 0zm0 33.476c-2.534 0-5.357-6.512-5.357-15.857 0-9.345 2.823-15.857 5.357-15.857 2.534 0 5.357 6.512 5.357 15.857 0 9.345-2.823 15.857-5.357 15.857z"/>
        <path d="M31.27 11.429c-.438 0-.794.39-.794.873 0 .482.356.873.794.873 1.313 0 2.38 1.566 2.38 3.492s-1.067 3.492-2.38 3.492c-.438 0-.794.39-.794.873 0 .482.356.873.794.873 2.189 0 3.968-2.35 3.968-5.238 0-2.888-1.78-5.238-3.968-5.238zM26.362 17.143c0-5.796 1.154-11.12 3.016-13.896a.854.854 0 0 0-.122-1.098.888.888 0 0 0-1.117-.086l-11.723 8.153H7.03c-3.877 0-7.03 3.107-7.03 6.927 0 3.82 3.153 6.927 7.03 6.927h9.386l11.723 8.153a.886.886 0 0 0 1.117-.086.853.853 0 0 0 .122-1.098c-1.862-2.776-3.016-8.1-3.016-13.896zm-9.16 5.353a.887.887 0 0 0-.506-.158H7.03c-2.907 0-5.273-2.33-5.273-5.195 0-2.864 2.366-5.195 5.273-5.195h9.666a.876.876 0 0 0 .506-.16l9.2-6.398c-1.137 3.136-1.798 7.334-1.798 11.753 0 4.42.661 8.617 1.798 11.752l-9.2-6.399z"/>
        <path d="M14.729 31.362l1.446-7.69a.912.912 0 0 0-.17-.721.8.8 0 0 0-.632-.318c-3.013 0-4.08-2.806-4.08-5.21s1.067-5.21 4.08-5.21c.45 0 .817-.39.817-.868 0-.48-.366-.869-.817-.869-3.418 0-5.713 2.791-5.713 6.947 0 3.744 1.864 6.38 4.732 6.865l-1.265 6.732c-.17.906.095 1.839.713 2.497.462.493.717 1.146.717 1.843v.595c0 .697-.255 1.351-.717 1.845l-.202.215-2.888-2.048c-.682-.484-1.09-1.295-1.09-2.167v-6.825a.898.898 0 0 0-.24-.615l-3.265-3.473a.783.783 0 0 0-1.154 0 .909.909 0 0 0 0 1.227l3.026 3.22V33.8c0 1.455.68 2.805 1.817 3.612l3.445 2.442a.773.773 0 0 0 .452.146c.21 0 .42-.087.578-.254l.676-.719a4.457 4.457 0 0 0 1.195-3.07v-.596c0-1.16-.425-2.25-1.197-3.074a1.061 1.061 0 0 1-.264-.925z"/>
    </g>
</svg>
