<?xml version="1.0" encoding="UTF-8"?>
<svg width="55px" height="40px" viewBox="0 0 55 40" version="1.1" xmlns="http://www.w3.org/2000/svg" xmlns:xlink="http://www.w3.org/1999/xlink">
    <!-- Generator: Sketch 46.2 (44496) - http://www.bohemiancoding.com/sketch -->
    <title>id-card (2)</title>
    <desc>Created with Sketch.</desc>
    <defs></defs>
    <g id="Page-3" stroke="none" stroke-width="1" fill="none" fill-rule="evenodd">
        <g id="2.0.0-home" transform="translate(-248.000000, -372.000000)" fill-rule="nonzero" fill="#525252">
            <g id="Group-8" transform="translate(201.000000, 360.000000)">
                <g id="id-card-(2)" transform="translate(47.000000, 12.000000)">
                    <path d="M50.7118182,0 L3.83363636,0 C1.72,0 0,1.72 0,3.83363636 L0,36.1663636 C0,38.28 1.72,40 3.83363636,40 L50.7118182,40 C52.8254545,40 54.5454545,38.28 54.5454545,36.1663636 L54.5454545,3.83363636 C54.5454545,1.72 52.8254545,0 50.7118182,0 Z M52.7272727,36.1663636 C52.7272727,37.2781818 51.8236364,38.1818182 50.7118182,38.1818182 L3.83363636,38.1818182 C2.72181818,38.1818182 1.81818182,37.2781818 1.81818182,36.1663636 L1.81818182,3.83363636 C1.81818182,2.72181818 2.72181818,1.81818182 3.83363636,1.81818182 L50.7118182,1.81818182 C51.8236364,1.81818182 52.7272727,2.72181818 52.7272727,3.83363636 L52.7272727,36.1663636 Z" id="Shape"></path>
                    <path d="M20.58,25.6781818 L17.2727273,23.9890909 L17.2727273,23.6372727 C18.7527273,22.8290909 19.7936364,21.4981818 20.3745455,19.67 C21.2554545,19.2027273 21.8181818,18.2927273 21.8181818,17.2727273 L21.8181818,16.3636364 C21.8181818,15.5218182 21.4263636,14.7409091 20.7718182,14.2281818 C20.2045455,10.7918182 17.8063636,9.05 13.6363636,9.05 C13.4390909,9.05 13.2463636,9.05727273 13.0581818,9.07181818 C12.2727273,9.13636364 11.1227273,9.06818182 10.1272727,8.39909091 C9.75545455,8.14818182 9.47454545,7.90454545 9.29545455,7.67818182 C8.99,7.28818182 8.47636364,7.15181818 8.02090909,7.33909091 C7.56454545,7.52636364 7.29636364,7.98272727 7.35363636,8.47272727 C7.39181818,8.81272727 7.44909091,9.20818182 7.53545455,9.64181818 C7.71090909,10.5281818 7.71090909,10.5281818 7.46454545,11.0581818 C7.37181818,11.2590909 7.25727273,11.5036364 7.12272727,11.8336364 C6.82181818,12.5709091 6.60818182,13.3781818 6.48545455,14.24 C5.84,14.7536364 5.45454545,15.53 5.45454545,16.3636364 L5.45454545,17.2727273 C5.45454545,18.2927273 6.01727273,19.2027273 6.89818182,19.67 C7.47909091,21.4990909 8.52,22.83 10,23.6372727 L10,23.9790909 L6.57363636,25.6681818 C5.32272727,26.35 4.54545455,27.6590909 4.54545455,29.0845455 L4.54545455,30.2890909 C4.54545455,31.0190909 4.54545455,32.7272727 13.6363636,32.7272727 C22.7272727,32.7272727 22.7272727,31.0190909 22.7272727,30.2890909 L22.7272727,29.1572727 C22.7272727,27.6745455 21.9045455,26.3427273 20.58,25.6781818 Z M20.9090909,30.0836364 C20.3418182,30.4290909 18.0345455,30.9090909 13.6363636,30.9090909 C9.23818182,30.9090909 6.93090909,30.4290909 6.36363636,30.0836364 L6.36363636,29.0845455 C6.36363636,28.3254545 6.77727273,27.6272727 7.41090909,27.2827273 L10.9172727,25.5545455 C11.4645455,25.2872727 11.8172727,24.7209091 11.8172727,24.1109091 L11.8172727,22.4718182 L11.2681818,22.2354545 C9.88909091,21.6409091 8.99272727,20.5072727 8.52727273,18.7681818 L8.39727273,18.2836364 L7.91909091,18.1345455 C7.53909091,18.0154545 7.27272727,17.6618182 7.27272727,17.2727273 L7.27272727,16.3636364 C7.27272727,16.0345455 7.46090909,15.7290909 7.76454545,15.5672727 L8.19090909,15.34 L8.24090909,14.8590909 C8.33090909,14.0063636 8.52090909,13.22 8.80636364,12.5227273 C8.92727273,12.2272727 9.03,12.0063636 9.11363636,11.8254545 C9.42181818,11.1636364 9.53363636,10.8218182 9.45636364,10.1209091 C10.5254545,10.7318182 11.81,10.9918182 13.2036364,10.8854545 C13.3445455,10.8736364 13.4890909,10.8681818 13.6372727,10.8681818 C17.0409091,10.8681818 18.7027273,12.1009091 19.0272727,14.8663636 L19.0836364,15.3409091 L19.5063636,15.5645455 C19.81,15.7263636 20,16.0327273 20,16.3636364 L20,17.2727273 C20,17.6618182 19.7336364,18.0154545 19.3527273,18.1336364 L18.8745455,18.2827273 L18.7445455,18.7672727 C18.2790909,20.5063636 17.3827273,21.64 16.0036364,22.2345455 L15.4545455,22.4718182 L15.4545455,24.1181818 C15.4545455,24.7263636 15.7909091,25.2745455 16.3309091,25.55 L19.7627273,27.3036364 C20.47,27.6563636 20.9090909,28.3672727 20.9090909,29.1572727 L20.9090909,30.0836364 Z" id="Shape"></path>
                    <path d="M27.2727273,13.6363636 L36.3636364,13.6363636 C36.8663636,13.6363636 37.2727273,13.23 37.2727273,12.7272727 C37.2727273,12.2245455 36.8663636,11.8181818 36.3636364,11.8181818 L27.2727273,11.8181818 C26.77,11.8181818 26.3636364,12.2245455 26.3636364,12.7272727 C26.3636364,13.23 26.77,13.6363636 27.2727273,13.6363636 Z" id="Shape"></path>
                    <path d="M40,13.6363636 L40.9090909,13.6363636 C41.4118182,13.6363636 41.8181818,13.23 41.8181818,12.7272727 C41.8181818,12.2245455 41.4118182,11.8181818 40.9090909,11.8181818 L40,11.8181818 C39.4972727,11.8181818 39.0909091,12.2245455 39.0909091,12.7272727 C39.0909091,13.23 39.4972727,13.6363636 40,13.6363636 Z" id="Shape"></path>
                    <path d="M28.1818182,27.2727273 L27.2727273,27.2727273 C26.77,27.2727273 26.3636364,27.6790909 26.3636364,28.1818182 C26.3636364,28.6845455 26.77,29.0909091 27.2727273,29.0909091 L28.1818182,29.0909091 C28.6845455,29.0909091 29.0909091,28.6845455 29.0909091,28.1818182 C29.0909091,27.6790909 28.6845455,27.2727273 28.1818182,27.2727273 Z" id="Shape"></path>
                    <path d="M33.6363636,27.2727273 L31.8181818,27.2727273 C31.3154545,27.2727273 30.9090909,27.6790909 30.9090909,28.1818182 C30.9090909,28.6845455 31.3154545,29.0909091 31.8181818,29.0909091 L33.6363636,29.0909091 C34.1390909,29.0909091 34.5454545,28.6845455 34.5454545,28.1818182 C34.5454545,27.6790909 34.1390909,27.2727273 33.6363636,27.2727273 Z" id="Shape"></path>
                    <path d="M38.1818182,27.2727273 L37.2727273,27.2727273 C36.77,27.2727273 36.3636364,27.6790909 36.3636364,28.1818182 C36.3636364,28.6845455 36.77,29.0909091 37.2727273,29.0909091 L38.1818182,29.0909091 C38.6845455,29.0909091 39.0909091,28.6845455 39.0909091,28.1818182 C39.0909091,27.6790909 38.6845455,27.2727273 38.1818182,27.2727273 Z" id="Shape"></path>
                    <path d="M43.6363636,27.2727273 L41.8181818,27.2727273 C41.3154545,27.2727273 40.9090909,27.6790909 40.9090909,28.1818182 C40.9090909,28.6845455 41.3154545,29.0909091 41.8181818,29.0909091 L43.6363636,29.0909091 C44.1390909,29.0909091 44.5454545,28.6845455 44.5454545,28.1818182 C44.5454545,27.6790909 44.1390909,27.2727273 43.6363636,27.2727273 Z" id="Shape"></path>
                    <path d="M46.6272727,27.5363636 C46.4627273,27.7081818 46.3636364,27.9454545 46.3636364,28.1818182 C46.3636364,28.4181818 46.4627273,28.6545455 46.6272727,28.8272727 C46.7990909,28.9909091 47.0363636,29.0909091 47.2727273,29.0909091 C47.5090909,29.0909091 47.7454545,28.9909091 47.9181818,28.8272727 C48.0818182,28.6545455 48.1818182,28.4181818 48.1818182,28.1818182 C48.1818182,27.9454545 48.0818182,27.7081818 47.9181818,27.5363636 C47.5727273,27.2 46.9636364,27.2 46.6272727,27.5363636 Z" id="Shape"></path>
                    <path d="M47.2727273,17.2727273 L27.2727273,17.2727273 C26.77,17.2727273 26.3636364,17.6790909 26.3636364,18.1818182 C26.3636364,18.6845455 26.77,19.0909091 27.2727273,19.0909091 L47.2727273,19.0909091 C47.7754545,19.0909091 48.1818182,18.6845455 48.1818182,18.1818182 C48.1818182,17.6790909 47.7754545,17.2727273 47.2727273,17.2727273 Z" id="Shape"></path>
                    <path d="M47.2727273,22.7272727 L27.2727273,22.7272727 C26.77,22.7272727 26.3636364,23.1336364 26.3636364,23.6363636 C26.3636364,24.1390909 26.77,24.5454545 27.2727273,24.5454545 L47.2727273,24.5454545 C47.7754545,24.5454545 48.1818182,24.1390909 48.1818182,23.6363636 C48.1818182,23.1336364 47.7754545,22.7272727 47.2727273,22.7272727 Z" id="Shape"></path>
                </g>
            </g>
        </g>
    </g>
</svg>