<svg xmlns="http://www.w3.org/2000/svg" width="265" height="111" viewBox="0 0 265 111">
    <g fill="#007066" fill-rule="nonzero" opacity=".2">
        <path d="M34.447 45.39L10.631 59.14l-.636 2.232-2.25-.566-6.496 3.75a.821.821 0 0 0-.318 1.117l9.693 16.788a.82.82 0 0 0 1.125.282l6.495-3.75.636-2.231 2.251.564 23.816-13.75a.82.82 0 0 0 .318-1.115l-9.693-16.788a.82.82 0 0 0-1.125-.284zm8.972 17.205L20.922 75.583l-1.592-.4-1.592-.4-.449 1.578-.449 1.579-5.176 2.988-8.885-15.39 5.176-2.988 1.591.4 1.591.4.45-1.578.45-1.578 22.496-12.989 8.886 15.39z"/>
        <path d="M22.013 57.187a3.5 3.5 0 1 0 3.501 6.063 3.5 3.5 0 0 0-3.5-6.063zm2.625 4.547a1.753 1.753 0 0 1-2.391-.64 1.753 1.753 0 0 1 .641-2.391 1.752 1.752 0 0 1 2.39.64 1.752 1.752 0 0 1-.64 2.39zM30.71 60.25a3.5 3.5 0 1 0 3.498 6.062 3.5 3.5 0 0 0-3.499-6.063zm2.624 4.545a1.75 1.75 0 1 1 .64-2.39 1.75 1.75 0 0 1-.64 2.39z"/>
        <path d="M29.536 52.843a.812.812 0 0 0-.379.494l-4.163 15.538a.813.813 0 0 0 1.57.42l4.163-15.538a.813.813 0 0 0-1.19-.914zM11.254 64.553a.5.5 0 1 0 .501.866.5.5 0 0 0-.5-.866zM12.754 67.152a.5.5 0 1 0 .501.865.5.5 0 0 0-.5-.865zM14.754 70.616a.5.5 0 1 0 .501.865.5.5 0 0 0-.5-.865zM15.754 72.348a.5.5 0 1 0 .5.865.5.5 0 0 0-.5-.865z"/>
        <g>
            <path d="M258.894 18.963l-26.563 7.118-1.192 1.992-2.028-1.13-7.244 1.942a.821.821 0 0 0-.596.996l5.017 18.724a.82.82 0 0 0 1.014.564l7.245-1.94 1.191-1.991 2.029 1.127 26.563-7.117a.82.82 0 0 0 .595-.995l-5.017-18.725a.82.82 0 0 0-1.014-.565zm4.213 18.941l-25.092 6.724-1.433-.799-1.435-.8-.842 1.41-.842 1.409-5.773 1.546-4.6-17.165 5.773-1.546 1.434.798 1.433.798.843-1.408.843-1.408 25.092-6.724 4.599 17.165z"/>
            <path d="M243.83 27.14a3.5 3.5 0 1 0 1.813 6.764 3.5 3.5 0 0 0-1.812-6.763zm1.36 5.072a1.753 1.753 0 0 1-2.145-1.237 1.753 1.753 0 0 1 1.239-2.144 1.752 1.752 0 0 1 2.143 1.237 1.752 1.752 0 0 1-1.238 2.144zM251.438 32.35a3.5 3.5 0 1 0 1.81 6.76 3.5 3.5 0 0 0-1.81-6.76zm1.358 5.07a1.75 1.75 0 1 1 1.236-2.144 1.75 1.75 0 0 1-1.236 2.144z"/>
            <path d="M252.222 24.892a.812.812 0 0 0-.494.379l-8.043 13.931a.813.813 0 0 0 1.408.813l8.042-13.932a.813.813 0 0 0-.914-1.19zM231.532 31.472a.5.5 0 1 0 .26.965.5.5 0 0 0-.26-.965zM232.308 34.37a.5.5 0 1 0 .26.965.5.5 0 0 0-.26-.966zM233.343 38.233a.5.5 0 1 0 .26.966.5.5 0 0 0-.26-.966zM233.861 40.165a.5.5 0 1 0 .26.966.5.5 0 0 0-.26-.966z"/>
        </g>
        <g>
            <path d="M149.094 25.222H130.44l-1.131 1.095-1.13-1.095h-5.088a.557.557 0 0 0-.565.547v13.15c0 .302.253.547.565.547h5.088l1.13-1.095 1.13 1.095h18.655a.556.556 0 0 0 .564-.547v-13.15a.556.556 0 0 0-.564-.547zm-.566 13.15h-17.62l-.8-.776-.8-.775-.798.775-.8.775h-4.053V26.317h4.054l.799.775.799.775.8-.775.799-.775h17.62v12.054z"/>
            <path d="M137.788 27.935a2.375 2.375 0 1 0 0 4.749 2.375 2.375 0 0 0 0-4.75zm0 3.56a1.189 1.189 0 0 1-1.188-1.186 1.188 1.188 0 0 1 2.375 0c0 .654-.532 1.187-1.187 1.187zM141.858 32.683a2.374 2.374 0 1 0-.001 4.748 2.374 2.374 0 0 0 0-4.748zm0 3.56a1.188 1.188 0 1 1 .001-2.374 1.188 1.188 0 0 1-.001 2.375z"/>
            <path d="M143.68 27.935a.55.55 0 0 0-.39.161l-7.715 7.716a.552.552 0 0 0 .78.78l7.715-7.717a.552.552 0 0 0-.39-.94zM128.97 28.613a.34.34 0 1 0 0 .679.34.34 0 0 0 0-.679zM128.97 30.648a.34.34 0 1 0 0 .679.34.34 0 0 0 0-.679zM128.97 33.361a.34.34 0 1 0 0 .679.34.34 0 0 0 0-.679zM128.97 34.718a.34.34 0 1 0 0 .678.34.34 0 0 0 0-.678z"/>
        </g>
        <g>
            <path d="M93.273 93.149l-15.595 4.179-.7 1.17-1.19-.664-4.254 1.14a.482.482 0 0 0-.35.585l2.946 10.993a.482.482 0 0 0 .595.33l4.254-1.139.7-1.168 1.19.662 15.595-4.179a.481.481 0 0 0 .35-.584L93.868 93.48a.481.481 0 0 0-.595-.332zm2.474 11.12l-14.732 3.948-.842-.47-.842-.468-.494.827-.495.827-3.39.908-2.7-10.078 3.39-.908.842.469.841.469.495-.827.495-.827 14.731-3.947 2.7 10.077z"/>
            <path d="M84.43 97.95a2.055 2.055 0 1 0 1.063 3.97 2.055 2.055 0 0 0-1.064-3.97zm.797 2.977a1.03 1.03 0 0 1-1.259-.726 1.029 1.029 0 0 1 1.986-.532 1.029 1.029 0 0 1-.727 1.258zM88.896 101.008a2.055 2.055 0 1 0 1.062 3.97 2.055 2.055 0 0 0-1.062-3.97zm.797 2.977a1.028 1.028 0 1 1-.53-1.986 1.028 1.028 0 0 1 .53 1.986z"/>
            <path d="M89.356 96.63a.476.476 0 0 0-.29.222l-4.722 8.18a.475.475 0 0 0 .537.699.48.48 0 0 0 .29-.223l4.721-8.179a.477.477 0 0 0-.536-.7zM77.209 100.493a.294.294 0 1 0 .152.567.294.294 0 0 0-.152-.567zM77.664 102.194a.294.294 0 1 0 .153.567.294.294 0 0 0-.153-.567zM78.272 104.462a.294.294 0 1 0 .153.567.294.294 0 0 0-.153-.567zM78.576 105.596a.294.294 0 1 0 .153.567.294.294 0 0 0-.153-.567z"/>
        </g>
        <g>
            <path d="M77.107 12.142L63.125 4.069l-1.322.332-.373-1.31L57.617.888a.482.482 0 0 0-.661.166l-5.691 9.856a.482.482 0 0 0 .187.655l3.813 2.202 1.321-.332.374 1.31 13.983 8.073c.234.135.529.061.66-.166l5.69-9.856a.481.481 0 0 0-.186-.655zm-6.114 9.612l-13.208-7.626-.264-.926-.264-.928-.934.236-.935.235-3.038-1.755 5.216-9.035 3.039 1.754.264.927.263.926.935-.234.934-.235 13.208 7.626-5.216 9.035z"/>
            <path d="M67.459 9.283a2.055 2.055 0 1 0-2.055 3.56 2.055 2.055 0 0 0 2.055-3.56zm-1.541 2.67a1.03 1.03 0 0 1-.377-1.404 1.029 1.029 0 0 1 1.78 1.027c-.283.49-.913.66-1.403.376zM68.455 14.603a2.055 2.055 0 1 0-2.056 3.559 2.055 2.055 0 0 0 2.056-3.559zm-1.541 2.67a1.028 1.028 0 1 1 1.028-1.78 1.028 1.028 0 0 1-1.028 1.78z"/>
            <path d="M71.876 11.833a.476.476 0 0 0-.363-.048l-9.122 2.445a.475.475 0 0 0-.115.874.48.48 0 0 0 .362.047l9.123-2.444a.477.477 0 0 0 .115-.874zM60.555 5.975a.294.294 0 1 0-.293.509.294.294 0 0 0 .293-.509zM59.674 7.5a.294.294 0 1 0-.293.51.294.294 0 0 0 .293-.51zM58.5 9.534a.294.294 0 1 0-.293.51.294.294 0 0 0 .293-.51zM57.913 10.551a.294.294 0 1 0-.293.509.294.294 0 0 0 .293-.509z"/>
        </g>
    </g>
</svg>
