<?xml version="1.0" encoding="UTF-8"?>
<svg width="21px" height="26px" viewBox="0 0 21 26" version="1.1" xmlns="http://www.w3.org/2000/svg" xmlns:xlink="http://www.w3.org/1999/xlink">
    <!-- Generator: Sketch 46.2 (44496) - http://www.bohemiancoding.com/sketch -->
    <title>placeholder (2)</title>
    <desc>Created with Sketch.</desc>
    <defs></defs>
    <g id="Page-3" stroke="none" stroke-width="1" fill="none" fill-rule="evenodd">
        <g id="Artboard" transform="translate(-75.000000, -81.000000)" fill-rule="nonzero" fill="#00645B">
            <g id="placeholder-(2)" transform="translate(75.000000, 81.000000)">
                <path d="M10.0753576,3.87825215e-16 C4.52629455,3.87825215e-16 0,4.54118468 0,10.1303351 C-7.73107142e-16,10.8071462 0.0652830944,11.4839574 0.195849283,12.138936 C0.195849283,12.1826012 0.217610315,12.2262664 0.217610315,12.2917643 C1.32742292,17.291434 9.13963322,24.8018548 9.46604869,25.1075114 C9.64013695,25.2821724 9.85774726,25.3476703 10.0753576,25.3476703 C10.2929679,25.3476703 10.5105782,25.2603398 10.6846665,25.1075114 C11.0110819,24.7800222 18.7797702,17.291434 19.8895828,12.4009274 C19.8895828,12.3572622 19.9113438,12.3135969 19.9113438,12.2699317 C20.063671,11.5712879 20.1289541,10.8508115 20.1289541,10.1303351 C20.1507152,4.54118468 15.6244206,0 10.0753576,3.87825215e-16 Z M18.1704613,11.9424424 C18.1704613,11.9861076 18.1704613,11.964275 18.1704613,12.0079403 C17.3435421,15.632155 11.9250453,21.352301 10.0753576,23.2080736 C8.2256699,21.352301 2.78541203,15.632155 1.95849283,11.9206098 C1.95849283,11.8769445 1.95849283,11.8551119 1.9367318,11.8114467 C1.82792664,11.2437986 1.76264355,10.6761505 1.76264355,10.1085024 C1.76264355,5.52365252 5.48377993,1.76844211 10.0535965,1.76844211 C14.6234132,1.76844211 18.3663106,5.5018199 18.3663106,10.1085024 C18.3663106,10.7416484 18.3010275,11.3529617 18.1704613,11.9424424 Z" id="Shape"></path>
                <path d="M10.0645161,5.96415771 C8.20312175,5.96415771 6.70967742,7.47924616 6.70967742,9.31899642 C6.70967742,11.1587467 8.22476587,12.6738351 10.0645161,12.6738351 C11.9042664,12.6738351 13.4193548,11.1803908 13.4193548,9.31899642 C13.4193548,7.45760203 11.9259105,5.96415771 10.0645161,5.96415771 Z M10.0645161,10.9206613 C9.17710718,10.9206613 8.4628512,10.2064054 8.4628512,9.31899642 C8.4628512,8.43158747 9.17710718,7.71733148 10.0645161,7.71733148 C10.9519251,7.71733148 11.6661811,8.43158747 11.6661811,9.31899642 C11.6661811,10.2064054 10.9519251,10.9206613 10.0645161,10.9206613 Z" id="Shape"></path>
            </g>
        </g>
    </g>
</svg>