<svg xmlns="http://www.w3.org/2000/svg" width="21" height="26" viewBox="0 0 21 26">
    <g fill="#959595" fill-rule="nonzero">
        <path d="M10.075 0C4.526 0 0 4.541 0 10.13c0 .677.065 1.354.196 2.009 0 .044.022.087.022.153 1.11 5 8.922 12.51 9.248 12.816.174.174.392.24.61.24a.933.933 0 0 0 .609-.24c.326-.328 8.095-7.817 9.205-12.707 0-.044.021-.087.021-.131.153-.699.218-1.42.218-2.14C20.151 4.541 15.624 0 10.075 0zm8.095 11.942v.066c-.826 3.624-6.245 9.344-8.095 11.2-1.85-1.856-7.29-7.576-8.117-11.287 0-.044 0-.066-.021-.11a9.044 9.044 0 0 1-.174-1.702c0-4.585 3.72-8.34 8.29-8.34 4.57 0 8.313 3.733 8.313 8.34 0 .633-.065 1.244-.196 1.833z"/>
        <path d="M10.065 5.964A3.358 3.358 0 0 0 6.71 9.32a3.372 3.372 0 0 0 3.355 3.355 3.358 3.358 0 0 0 3.354-3.355 3.344 3.344 0 0 0-3.354-3.355zm0 4.957a1.598 1.598 0 0 1-1.602-1.602c0-.887.714-1.602 1.602-1.602.887 0 1.601.715 1.601 1.602 0 .887-.714 1.602-1.601 1.602z"/>
    </g>
</svg>
