<svg xmlns="http://www.w3.org/2000/svg" width="16" height="16" viewBox="0 0 16 16">
    <g fill="#434343" fill-rule="nonzero">
        <path d="M14.963 7.938h-2.64a14.437 14.437 0 0 0-.506-3.622h1.73a.257.257 0 1 0 0-.513H11.66c-.274-.829-.627-1.56-1.046-2.147a.257.257 0 1 0-.419.298c.364.51.675 1.138.924 1.849H8.452V1.428a.257.257 0 1 0-.514 0v2.375H5.272c.25-.711.56-1.34.924-1.849a.257.257 0 0 0-.418-.298c-.42.587-.773 1.319-1.047 2.147H2.842a.257.257 0 1 0 0 .513h1.731a14.44 14.44 0 0 0-.506 3.622h-2.64a.257.257 0 1 0 0 .514h2.64c.021 1.283.198 2.523.506 3.622h-1.73a.257.257 0 1 0 0 .514H4.73c.275.828.627 1.56 1.047 2.147a.257.257 0 1 0 .418-.299c-.364-.51-.675-1.137-.924-1.848h2.666v2.375a.257.257 0 1 0 .514 0v-2.375h2.666c-.25.71-.56 1.339-.924 1.848a.257.257 0 0 0 .418.299c.42-.587.773-1.32 1.048-2.147h1.888a.257.257 0 1 0 0-.514h-1.731c.308-1.1.485-2.34.506-3.622h2.64a.257.257 0 1 0 0-.514zm-3.68-3.622c.32 1.086.504 2.33.526 3.622H8.452V4.316h2.832zm-6.177 0h2.832v3.622H4.581c.022-1.293.206-2.536.525-3.622zm0 7.758c-.319-1.086-.503-2.329-.525-3.622h3.357v3.622H5.106zm6.178 0H8.452V8.452h3.357c-.022 1.293-.206 2.536-.525 3.622z"/>
        <path d="M13.657 2.343A7.948 7.948 0 0 0 8 0a7.948 7.948 0 0 0-5.657 2.343A7.948 7.948 0 0 0 0 8c0 1.575.456 3.094 1.32 4.402l-.978 2.933a.255.255 0 0 0 .323.323l2.933-.978A7.957 7.957 0 0 0 8 16a7.948 7.948 0 0 0 5.657-2.343A7.948 7.948 0 0 0 16 8a7.948 7.948 0 0 0-2.343-5.657zM8 15.49a7.449 7.449 0 0 1-4.22-1.301.255.255 0 0 0-.225-.032l-2.567.856.856-2.567a.256.256 0 0 0-.032-.225A7.448 7.448 0 0 1 .511 8C.51 3.87 3.87.51 8 .51c4.13 0 7.49 3.36 7.49 7.49 0 4.13-3.36 7.49-7.49 7.49z"/>
    </g>
</svg>
