<svg xmlns="http://www.w3.org/2000/svg" width="17" height="20" viewBox="0 0 17 20">
    <g fill="#434343" fill-rule="nonzero">
        <path d="M3.086 20H13.58c1.702 0 3.087-1.375 3.087-3.02v-6.568c0-1.646-1.385-2.985-3.087-2.985V4.99C13.58 2.172 11.343 0 8.488 0h-.103C5.463 0 3.086 2.236 3.086 5.007c0 .33.277.588.618.588.34 0 .617-.254.617-.583 0-2.077 1.86-3.818 4.064-3.818h.103c2.163 0 3.858 1.647 3.858 3.795v2.474h-9.26C1.385 7.463 0 8.766 0 10.413v6.566C0 18.625 1.385 20 3.086 20zm12.346-2.985c0 .989-.83 1.791-1.852 1.791H3.086c-1.022 0-1.851-.802-1.851-1.791v-6.567c0-.99.829-1.791 1.851-1.791H13.58c1.023 0 1.852.802 1.852 1.79v6.568z"/>
        <path d="M7.517 14.4v1.335c0 .494.35.932.782.932h.068c.432 0 .783-.438.783-.932V14.4c.507-.326.85-.947.85-1.66 0-1.053-.746-1.907-1.667-1.907-.92 0-1.666.854-1.666 1.906 0 .714.343 1.335.85 1.661z"/>
    </g>
</svg>
