<?xml version="1.0" encoding="UTF-8"?>
<svg width="22px" height="24px" viewBox="0 0 22 24" version="1.1" xmlns="http://www.w3.org/2000/svg" xmlns:xlink="http://www.w3.org/1999/xlink">
    <!-- Generator: Sketch 47.1 (45422) - http://www.bohemiancoding.com/sketch -->
    <title>rewards_inactive@5x</title>
    <desc>Created with Sketch.</desc>
    <defs></defs>
    <g id="Page-4" stroke="none" stroke-width="1" fill="none" fill-rule="evenodd" stroke-linecap="round" stroke-linejoin="round">
        <g id="iPhone-8-Copy-2" transform="translate(-173.000000, -622.000000)" stroke="#949494">
            <g id="rewards_inactive@5x" transform="translate(173.000000, 622.000000)">
                <path d="M10.7435294,5.39294118 C10.7435294,5.39294118 8.01882353,-1.75058824 4.13647059,1.59529412 C4.13647059,1.59529412 2.01882353,5.12470588 7.84941176,6.18352941 L10.7435294,5.39294118 Z" id="Shape"></path>
                <path d="M7.83529412,6.18352941 L10.7435294,5.39294118 C10.7435294,5.39294118 8.01882353,-1.75058824 4.13647059,1.59529412" id="Shape"></path>
                <path d="M10.3905882,5.39294118 C10.3905882,5.39294118 13.1294118,-1.75058824 17.0117647,1.59529412 C17.0117647,1.59529412 19.1294118,5.12470588 13.3129412,6.18352941 L10.3905882,5.39294118 Z" id="Shape"></path>
                <path d="M13.3129412,6.18352941 L10.3905882,5.39294118 C10.3905882,5.39294118 13.1294118,-1.75058824 17.0117647,1.59529412" id="Shape"></path>
                <rect id="Rectangle-path" x="0.705882353" y="6.36705882" width="20.3011765" height="4.85647059"></rect>
                <rect id="Rectangle-path" x="2.11764706" y="11.3082353" width="17.4776471" height="11.8305882"></rect>
                <rect id="Rectangle-path" x="7.80705882" y="6.18352941" width="6.08470588" height="17.0258824"></rect>
            </g>
        </g>
    </g>
</svg>